<?xml version="1.0" encoding="UTF-8" standalone="no"?>
<!-- Created with Inkscape (http://www.inkscape.org/) -->

<svg
   width="232"
   height="22"
   viewBox="0 0 61.383331 5.8208332"
   version="1.1"
   id="svg5"
   inkscape:version="1.2.2 (b0a8486541, 2022-12-01)"
   sodipodi:docname="cgil-logo.svg"
   xmlns:inkscape="http://www.inkscape.org/namespaces/inkscape"
   xmlns:sodipodi="http://sodipodi.sourceforge.net/DTD/sodipodi-0.dtd"
   xmlns="http://www.w3.org/2000/svg"
   xmlns:svg="http://www.w3.org/2000/svg">
  <sodipodi:namedview
     id="namedview7"
     pagecolor="#ffffff"
     bordercolor="#000000"
     borderopacity="0.25"
     inkscape:showpageshadow="false"
     inkscape:pageopacity="0.0"
     inkscape:pagecheckerboard="0"
     inkscape:deskcolor="#d1d1d1"
     inkscape:document-units="px"
     showgrid="false"
     inkscape:zoom="4.0229167"
     inkscape:cx="192.77059"
     inkscape:cy="26.597618"
     inkscape:window-width="2528"
     inkscape:window-height="1404"
     inkscape:window-x="2592"
     inkscape:window-y="0"
     inkscape:window-maximized="1"
     inkscape:current-layer="layer1" />
  <defs
     id="defs2" />
  <g
     inkscape:label="Livello 1"
     inkscape:groupmode="layer"
     id="layer1">
    <g
       id="g2307"
       transform="matrix(0.66666663,0,0,0.66666663,-1.0583314,-0.61736086)">
      <path
         id="path826"
         style="fill:#f00000;fill-opacity:1;stroke-width:0.87505"
         d="M 1.6777577,1.3229164 H 9.4139811 V 9.0591398 H 1.6777577 Z" />
      <path
         d="M 16.758762,4.5020487 Q 16.387175,4.1459453 16.000107,3.9704741 15.613037,3.7950029 15.184681,3.7950029 q -0.665758,0 -1.073471,0.4128734 -0.402551,0.4077125 -0.402551,1.0889537 0,0.6657584 0.387069,1.0631493 0.38707,0.3973907 1.037344,0.3973907 0.392231,0 0.794782,-0.1651488 0.407712,-0.1703115 0.887677,-0.5367356 l -0.08773,2.8436659 q -0.44384,0.1806335 -0.887678,0.268369 -0.44384,0.092896 -0.887679,0.092896 -0.552218,0 -1.063148,-0.1238609 Q 13.37836,9.0126912 12.965486,8.785611 11.964269,8.207588 11.448177,7.3250712 q -0.510931,-0.882517 -0.510931,-2.028241 0,-0.8463904 0.289013,-1.5689189 0.294172,-0.7225285 0.851551,-1.2747468 0.56254,-0.5573793 1.300552,-0.8412297 0.743172,-0.2890129 1.605045,-0.2890129 0.459322,0 0.903161,0.098057 0.449001,0.092895 0.872195,0.2838504 z"
         style="font-size:3.19585px;font-family:'Futura XBlk BT';-inkscape-font-specification:'Futura XBlk BT';fill:#ffffff;stroke-width:0.660599"
         id="path663" />
      <path
         d="M 22.76607,6.3548182 H 21.584221 V 4.5794625 h 4.175182 q 0.01027,0.2322402 0.01548,0.3457813 0.0052,0.1135382 0.0052,0.2012743 0,0.6502759 -0.123863,1.187011 -0.123862,0.5367357 -0.361263,0.9496092 -0.578024,0.9702525 -1.491506,1.4863444 -0.913482,0.5109306 -2.074689,0.5109306 -0.856712,0 -1.594724,-0.2838504 Q 19.401151,8.6875533 18.833451,8.130174 18.27091,7.572795 17.9819,6.8554274 17.692889,6.1380596 17.692889,5.29683 q 0,-0.8463904 0.289012,-1.5637583 0.294172,-0.7225284 0.851551,-1.2695858 0.56254,-0.5522178 1.300552,-0.8412295 0.738011,-0.2890097 1.594723,-0.2890097 1.161207,0 2.064367,0.5109309 0.90316,0.5057699 1.476023,1.4863443 L 22.848644,4.2285201 Q 22.657692,3.913704 22.389323,3.7588765 22.120955,3.604049 21.775174,3.604049 q -0.603827,0 -0.965091,0.4593215 -0.356104,0.4593218 -0.356104,1.2334595 0,0.7999422 0.361265,1.2437814 0.361264,0.4386779 1.021861,0.4386779 0.392229,0 0.634793,-0.1651489 0.247725,-0.1651488 0.294172,-0.4593222 z"
         style="font-size:3.19585px;font-family:'Futura XBlk BT';-inkscape-font-specification:'Futura XBlk BT';fill:#ffffff;stroke-width:0.660599"
         id="path660" />
      <path
         d="M 26.822551,9.0591394 V 1.5035556 h 2.761093 v 7.5555838 z"
         style="font-size:3.19585px;font-family:'Futura XBlk BT';-inkscape-font-specification:'Futura XBlk BT';fill:#ffffff;stroke-width:0.660599"
         id="path657" />
      <path
         d="M 31.049345,9.0591394 V 1.5035556 h 2.719806 v 5.1041476 h 2.642389 v 2.4514362 z"
         style="font-size:3.19585px;font-family:'Futura XBlk BT';-inkscape-font-specification:'Futura XBlk BT';fill:#ffffff;stroke-width:0.660599"
         id="path654" />
      <path
         d="m 39.950768,1.9365603 h 2.208962 v 0.5919441 h -1.56408 v 2.4929027 h 1.54483 v 0.5630688 h -1.54483 v 3.3784126 h -0.644882 z"
         id="path2184"
         style="font-size:9.85611px;font-family:'Futura LtCn BT';-inkscape-font-specification:'Futura LtCn BT';fill:#e6e6e6;stroke-width:0.616006" />
      <path
         d="m 43.001927,4.2417734 h 0.582319 v 0.6400697 q 0.129939,-0.3320662 0.322441,-0.5053182 0.197315,-0.1732519 0.45238,-0.1925021 v 0.6304445 q -0.43313,0.024063 -0.606382,0.3031909 -0.168439,0.2791281 -0.168439,1.0250739 v 2.8201564 h -0.582319 z"
         id="path2181"
         style="font-size:9.85611px;font-family:'Futura LtCn BT';-inkscape-font-specification:'Futura LtCn BT';fill:#e6e6e6;stroke-width:0.616006" />
      <path
         d="m 45.336016,2.3696901 q 0.187689,0 0.312816,0.1251264 0.129939,0.1251264 0.129939,0.3080034 0,0.173252 -0.129939,0.3031909 -0.129939,0.129939 -0.312816,0.129939 -0.173252,0 -0.303191,-0.129939 -0.129939,-0.1347515 -0.129939,-0.312816 0,-0.1780644 0.125126,-0.2983783 0.125127,-0.1251264 0.308004,-0.1251264 z M 45.04245,4.2417734 h 0.591944 V 8.9628885 H 45.04245 Z"
         id="path2178"
         style="font-size:9.85611px;font-family:'Futura LtCn BT';-inkscape-font-specification:'Futura LtCn BT';fill:#e6e6e6;stroke-width:0.616006" />
      <path
         d="m 46.712406,4.2417734 h 0.582319 v 3.094472 q 0,0.6545072 0.149189,0.9191977 0.154001,0.2646904 0.514943,0.2646904 0.351316,0 0.500506,-0.2598779 0.149189,-0.2598778 0.149189,-0.9240102 v -3.094472 h 0.582319 V 7.437309 q 0,0.8421969 -0.298379,1.2272011 -0.293565,0.3850043 -0.933635,0.3850043 -0.644882,0 -0.948073,-0.3850043 Q 46.712406,8.2746933 46.712406,7.437309 Z"
         id="path2175"
         style="font-size:9.85611px;font-family:'Futura LtCn BT';-inkscape-font-specification:'Futura LtCn BT';fill:#e6e6e6;stroke-width:0.616006" />
      <path
         d="m 50.254445,1.5034305 h 0.591944 v 7.459458 h -0.591944 z"
         id="path2172"
         style="font-size:9.85611px;font-family:'Futura LtCn BT';-inkscape-font-specification:'Futura LtCn BT';fill:#e6e6e6;stroke-width:0.616006" />
      <path
         d="m 52.26128,2.3696901 q 0.18769,0 0.312816,0.1251264 0.129939,0.1251264 0.129939,0.3080034 0,0.173252 -0.129939,0.3031909 -0.129939,0.129939 -0.312816,0.129939 -0.173252,0 -0.303191,-0.129939 -0.129939,-0.1347515 -0.129939,-0.312816 0,-0.1780644 0.125127,-0.2983783 0.125126,-0.1251264 0.308003,-0.1251264 z m -0.293566,1.8720833 h 0.591944 v 4.7211151 h -0.591944 z"
         id="path2169"
         style="font-size:9.85611px;font-family:'Futura LtCn BT';-inkscape-font-specification:'Futura LtCn BT';fill:#e6e6e6;stroke-width:0.616006" />
      <path
         d="m 55.177687,1.9365603 h 0.64007 l 0.914385,4.8462414 q 0.0385,0.1876896 0.08663,0.5438186 0.05294,0.3513164 0.101064,0.7892587 0.02887,-0.4716302 0.168439,-1.2657015 l 0.0096,-0.057751 L 57.97376,1.93656 h 0.649695 l -1.424516,7.0263282 h -0.572694 z"
         id="path2166"
         style="font-size:9.85611px;font-family:'Futura LtCn BT';-inkscape-font-specification:'Futura LtCn BT';fill:#e6e6e6;stroke-width:0.616006" />
      <path
         d="M 60.95275,6.2630459 Q 60.947938,5.5122876 60.760248,5.098408 60.577371,4.6845284 60.245305,4.6845284 q -0.351316,0 -0.563069,0.409067 -0.206939,0.4090671 -0.235815,1.1694505 z m 0.553444,0.4812554 h -2.059773 v 0.1588142 q 0,0.7844463 0.202127,1.2175761 0.202128,0.4283173 0.558257,0.4283173 0.293565,0 0.476442,-0.3080035 0.18769,-0.312816 0.202128,-0.8421968 h 0.563068 q -0.03369,0.765196 -0.370566,1.2079509 -0.336879,0.4427549 -0.880697,0.4427549 -0.65932,0 -0.991386,-0.6015692 -0.327254,-0.6063817 -0.327254,-1.8095201 0,-1.1838882 0.356129,-1.8335829 0.356129,-0.6496947 0.991386,-0.6496947 0.635257,0 0.957698,0.6160068 0.322441,0.6111943 0.322441,1.8143327 z"
         id="path2163"
         style="font-size:9.85611px;font-family:'Futura LtCn BT';-inkscape-font-specification:'Futura LtCn BT';fill:#e6e6e6;stroke-width:0.616006" />
      <path
         d="m 62.295455,4.2417734 h 0.582319 v 0.4331299 q 0.154001,-0.2454403 0.385004,-0.3657541 0.231002,-0.1251264 0.519756,-0.1251264 0.500505,0 0.726695,0.356129 0.231003,0.3513164 0.231003,1.1502003 V 8.9628885 H 64.157913 V 5.6037261 q 0,-0.5534437 -0.129939,-0.7603835 -0.129939,-0.2069398 -0.45238,-0.2069398 -0.341691,0 -0.519756,0.3031909 -0.178064,0.2983783 -0.178064,0.8806973 v 3.1425975 h -0.582319 z"
         id="path2160"
         style="font-size:9.85611px;font-family:'Futura LtCn BT';-inkscape-font-specification:'Futura LtCn BT';fill:#e6e6e6;stroke-width:0.616006" />
      <path
         d="M 67.632575,6.2630459 Q 67.627775,5.5122876 67.440073,5.098408 67.257196,4.6845284 66.92513,4.6845284 q -0.351316,0 -0.563069,0.409067 -0.20694,0.4090671 -0.235815,1.1694505 z m 0.553444,0.4812554 h -2.059773 v 0.1588142 q 0,0.7844463 0.202127,1.2175761 0.202128,0.4283173 0.558256,0.4283173 0.293566,0 0.476443,-0.3080035 0.18769,-0.312816 0.202128,-0.8421968 h 0.563068 q -0.03369,0.765196 -0.370566,1.2079509 -0.336879,0.4427549 -0.880698,0.4427549 -0.659319,0 -0.991386,-0.6015692 -0.327253,-0.6063817 -0.327253,-1.8095201 0,-1.1838882 0.356129,-1.8335829 0.356129,-0.6496947 0.991386,-0.6496947 0.635257,0 0.957698,0.6160068 0.322441,0.6111943 0.322441,1.8143327 z"
         id="path2157"
         style="font-size:9.85611px;font-family:'Futura LtCn BT';-inkscape-font-specification:'Futura LtCn BT';fill:#e6e6e6;stroke-width:0.616006" />
      <path
         d="M 70.414231,4.7230288 H 68.7154 V 4.2417734 h 2.50734 l -2.011647,4.2206095 h 1.694018 v 0.5005056 h -2.512152 z"
         id="path2154"
         style="font-size:9.85611px;font-family:'Futura LtCn BT';-inkscape-font-specification:'Futura LtCn BT';fill:#e6e6e6;stroke-width:0.616006" />
      <path
         d="m 72.016811,2.3696901 q 0.18769,0 0.312816,0.1251264 0.129939,0.1251264 0.129939,0.3080034 0,0.173252 -0.129939,0.3031909 -0.129939,0.129939 -0.312816,0.129939 -0.173252,0 -0.303191,-0.129939 -0.129939,-0.1347515 -0.129939,-0.312816 0,-0.1780644 0.125127,-0.2983783 0.125126,-0.1251264 0.308003,-0.1251264 z m -0.293565,1.8720833 h 0.591944 v 4.7211151 h -0.591944 z"
         id="path2151"
         style="font-size:9.85611px;font-family:'Futura LtCn BT';-inkscape-font-specification:'Futura LtCn BT';fill:#e6e6e6;stroke-width:0.616006" />
      <path
         d="m 73.831143,6.6288 q 0,1.1068873 0.158814,1.5255795 0.163627,0.4138796 0.558257,0.4138796 0.380191,0 0.539006,-0.4283173 0.163626,-0.4331298 0.163626,-1.5111418 0,-1.0828245 -0.163626,-1.5159544 -0.158815,-0.4379423 -0.539006,-0.4379423 -0.39463,0 -0.558257,0.4235047 -0.158814,0.4235047 -0.158814,1.530392 z m 1.386016,2.3340885 V 8.5297586 q -0.105877,0.2502528 -0.327254,0.3850043 -0.216565,0.1347515 -0.500506,0.1347515 -0.606381,0 -0.880697,-0.5919441 -0.269503,-0.5967566 -0.269503,-1.9683344 0,-1.1983258 0.274316,-1.7517694 0.279128,-0.5534437 0.875884,-0.5534437 0.269503,0 0.476443,0.1251264 0.20694,0.1251264 0.351317,0.3753792 v -0.442755 h 0.572693 v 4.7211151 z"
         id="path2148"
         style="font-size:9.85611px;font-family:'Futura LtCn BT';-inkscape-font-specification:'Futura LtCn BT';fill:#e6e6e6;stroke-width:0.616006" />
      <path
         d="M 81.742982,3.1589489 81.151038,3.4043891 Q 81.040349,2.9375714 80.828597,2.6969438 80.616845,2.4563161 80.313654,2.4563161 q -0.519756,0 -0.774821,0.7363207 -0.250253,0.7363207 -0.250253,2.252275 0,1.6122055 0.235815,2.3148383 0.240628,0.7026328 0.779634,0.7026328 0.413879,0 0.611194,-0.3657541 0.197315,-0.3705666 0.197315,-1.1550128 V 5.8780416 h -0.976949 v -0.591944 h 1.607393 v 1.5785175 q 0,1.0972622 -0.370566,1.6458933 -0.365754,0.5486311 -1.097263,0.5486311 -0.856634,0 -1.251263,-0.8566345 -0.39463,-0.8614471 -0.39463,-2.7479681 0,-1.843208 0.418692,-2.7239053 0.423505,-0.8855098 1.304202,-0.8855098 0.490881,0 0.84701,0.3416913 0.360941,0.3368787 0.543818,0.9721358 z"
         id="path2145"
         style="font-size:9.85611px;font-family:'Futura LtCn BT';-inkscape-font-specification:'Futura LtCn BT';fill:#e6e6e6;stroke-width:0.616006" />
      <path
         d="m 82.873932,2.3696901 q 0.187689,0 0.312816,0.1251264 0.129939,0.1251264 0.129939,0.3080034 0,0.173252 -0.129939,0.3031909 -0.129939,0.129939 -0.312816,0.129939 -0.173252,0 -0.303191,-0.129939 -0.129939,-0.1347515 -0.129939,-0.312816 0,-0.1780644 0.125126,-0.2983783 0.125127,-0.1251264 0.308004,-0.1251264 z m -0.293566,1.8720833 h 0.591944 v 4.7211151 h -0.591944 z"
         id="path2142"
         style="font-size:9.85611px;font-family:'Futura LtCn BT';-inkscape-font-specification:'Futura LtCn BT';fill:#e6e6e6;stroke-width:0.616006" />
      <path
         d="m 84.250321,4.2417734 h 0.582319 v 3.094472 q 0,0.6545072 0.149189,0.9191977 0.154002,0.2646904 0.514944,0.2646904 0.351316,0 0.500505,-0.2598779 0.149189,-0.2598778 0.149189,-0.9240102 v -3.094472 h 0.582319 V 7.437309 q 0,0.8421969 -0.298378,1.2272011 -0.293566,0.3850043 -0.933635,0.3850043 -0.644882,0 -0.948073,-0.3850043 Q 84.250321,8.2746933 84.250321,7.437309 Z"
         id="path2139"
         style="font-size:9.85611px;font-family:'Futura LtCn BT';-inkscape-font-specification:'Futura LtCn BT';fill:#e6e6e6;stroke-width:0.616006" />
      <path
         d="m 87.79236,1.5034305 h 0.591944 v 7.459458 H 87.79236 Z"
         id="path2136"
         style="font-size:9.85611px;font-family:'Futura LtCn BT';-inkscape-font-specification:'Futura LtCn BT';fill:#e6e6e6;stroke-width:0.616006" />
      <path
         d="m 89.799198,2.3696901 q 0.18769,0 0.312816,0.1251264 0.129939,0.1251264 0.129939,0.3080034 0,0.173252 -0.129939,0.3031909 -0.129939,0.129939 -0.312816,0.129939 -0.173252,0 -0.303191,-0.129939 -0.129939,-0.1347515 -0.129939,-0.312816 0,-0.1780644 0.125127,-0.2983783 0.125126,-0.1251264 0.308003,-0.1251264 z m -0.293566,1.8720833 h 0.591944 v 4.7211151 h -0.591944 z"
         id="path2133"
         style="font-size:9.85611px;font-family:'Futura LtCn BT';-inkscape-font-specification:'Futura LtCn BT';fill:#e6e6e6;stroke-width:0.616006" />
      <path
         d="m 91.61353,6.6288 q 0,1.1068873 0.158814,1.5255795 0.163627,0.4138796 0.558256,0.4138796 0.380192,0 0.539006,-0.4283173 0.163627,-0.4331298 0.163627,-1.5111418 0,-1.0828245 -0.163627,-1.5159544 -0.158814,-0.4379423 -0.539006,-0.4379423 -0.394629,0 -0.558256,0.4235047 Q 91.61353,5.5219127 91.61353,6.6288 Z m 1.386015,2.3340885 V 8.5297586 q -0.105876,0.2502528 -0.327253,0.3850043 -0.216565,0.1347515 -0.500506,0.1347515 -0.606382,0 -0.880697,-0.5919441 -0.269503,-0.5967566 -0.269503,-1.9683344 0,-1.1983258 0.274315,-1.7517694 0.279129,-0.5534437 0.875885,-0.5534437 0.269503,0 0.476443,0.1251264 0.20694,0.1251264 0.351316,0.3753792 v -0.442755 h 0.572694 v 4.7211151 z"
         id="path2130"
         style="font-size:9.85611px;font-family:'Futura LtCn BT';-inkscape-font-specification:'Futura LtCn BT';fill:#e6e6e6;stroke-width:0.616006" />
    </g>
  </g>
</svg>
