<?xml version="1.0" encoding="UTF-8" standalone="no"?>
<!-- Created with Inkscape (http://www.inkscape.org/) -->

<svg
   width="120"
   height="40"
   viewBox="0 0 31.749999 10.583333"
   version="1.1"
   id="svg5"
   inkscape:version="1.4 (e7c3feb100, 2024-10-09)"
   sodipodi:docname="navbar-logo.svg"
   xmlns:inkscape="http://www.inkscape.org/namespaces/inkscape"
   xmlns:sodipodi="http://sodipodi.sourceforge.net/DTD/sodipodi-0.dtd"
   xmlns="http://www.w3.org/2000/svg"
   xmlns:svg="http://www.w3.org/2000/svg">
  <sodipodi:namedview
     id="namedview7"
     pagecolor="#ffffff"
     bordercolor="#000000"
     borderopacity="0.25"
     inkscape:showpageshadow="false"
     inkscape:pageopacity="0.0"
     inkscape:pagecheckerboard="0"
     inkscape:deskcolor="#d1d1d1"
     inkscape:document-units="px"
     showgrid="false"
     inkscape:zoom="8"
     inkscape:cx="35"
     inkscape:cy="-0.875"
     inkscape:window-width="2528"
     inkscape:window-height="1404"
     inkscape:window-x="2592"
     inkscape:window-y="0"
     inkscape:window-maximized="1"
     inkscape:current-layer="layer1" />
  <defs
     id="defs2" />
  <g
     inkscape:label="Livello 1"
     inkscape:groupmode="layer"
     id="layer1">
    <path
       d="M 13.785952,8.2431132 13.43901,6.7050046 h -0.422112 l -0.265989,1.5381086 h -0.83266 l 0.728577,-4.2095604 1.27212,0.00289 q 0.566672,0.014456 0.864464,0.3469418 0.300683,0.3324858 0.254424,0.8991574 -0.07228,0.8615722 -0.786402,1.1998404 l 0.425004,1.7144706 v 0.046259 z m -0.427895,-3.501221 -0.21973,1.2547728 0.433678,0.00578 q 0.283335,-0.00289 0.439459,-0.1937092 0.156124,-0.190818 0.190818,-0.4568066 0.02602,-0.2023828 -0.02313,-0.396092 -0.04915,-0.1965982 -0.2949,-0.2110542 z"
       style="font-style:italic;font-weight:bold;font-size:29.6057px;font-family:'Roboto Condensed';-inkscape-font-specification:'Roboto Condensed,  Bold Italic';fill:#ffffff;stroke-width:2.28704"
       id="path2504" />
    <path
       d="m 14.818103,8.2431132 2.006481,-4.2095604 h 0.76038 L 18.13718,8.2431132 H 17.28139 L 17.209111,7.381541 h -1.118888 l -0.36718,0.8615722 z m 1.575694,-1.5699116 h 0.75749 l -0.118538,-1.494741 z"
       style="font-style:italic;font-weight:bold;font-size:29.6057px;font-family:'Roboto Condensed';-inkscape-font-specification:'Roboto Condensed,  Bold Italic';fill:#ffffff;stroke-width:2.28704"
       id="path2501" />
    <path
       d="m 18.52749,8.2431132 0.728577,-4.2095604 h 2.344749 l -0.12432,0.7083394 h -1.509199 l -0.17347,0.9945666 h 1.283685 l -0.121428,0.68521 h -1.280795 l -0.19371,1.115996 h 1.517871 l -0.12432,0.7054484 z"
       style="font-style:italic;font-weight:bold;font-size:29.6057px;font-family:'Roboto Condensed';-inkscape-font-specification:'Roboto Condensed,  Bold Italic';fill:#ffffff;stroke-width:2.28704"
       id="path2498" />
    <path
       id="path2495"
       style="font-style:italic;font-weight:bold;font-size:29.6057px;font-family:'Roboto Condensed';-inkscape-font-specification:'Roboto Condensed,  Bold Italic';fill:#ffffff;stroke-width:2.28704"
       d="m 23.363296,3.9750556 c -0.334634,0.00237 -0.617544,0.090286 -0.848838,0.2637564 -0.443316,0.331522 -0.72189,0.8750368 -0.835608,1.6305982 l -0.08961,0.5956224 c -0.03662,0.2929728 -0.02502,0.579175 0.03473,0.8586556 0.06168,0.2775532 0.185934,0.5079092 0.372896,0.6910172 0.112556,0.1102348 0.252904,0.1881272 0.420646,0.2340942 v 1.2393042 h 0.84522 V 8.2167602 h -4e-4 c 0.144958,-0.048524 0.286844,-0.1205636 0.454754,-0.222312 0.258278,-0.183108 0.447182,-0.4076656 0.566682,-0.6736538 0.12143,-0.267916 0.205198,-0.5531516 0.251458,-0.8557618 L 24.636512,5.8145298 C 24.675062,5.5196294 24.663464,5.232461 24.601786,4.9529804 24.540108,4.6734998 24.414782,4.4421772 24.225892,4.2590692 24.037002,4.0759616 23.771956,3.981561 23.430798,3.975779 c -0.02277,-6e-4 -0.04528,-8.8e-4 -0.06759,-7.2e-4 z m -0.03049,0.707967 c 0.0123,9.8e-5 0.02476,4.4e-4 0.03741,0.00104 0.185036,0.00771 0.309394,0.077086 0.373,0.2081526 0.06553,0.131067 0.09636,0.2823826 0.0925,0.4539258 -0.0039,0.1734708 -0.01352,0.325753 -0.02894,0.4568196 l -0.09539,0.6620784 c -0.02313,0.1599788 -0.06265,0.3295532 -0.118546,0.5088062 -0.05397,0.1792532 -0.13881,0.3305688 -0.254456,0.4539258 -0.115644,0.1214294 -0.275556,0.1773796 -0.479866,0.1677416 -0.186964,-0.00771 -0.31229,-0.078052 -0.375896,-0.2110464 -0.06361,-0.1329944 -0.09346,-0.286243 -0.08961,-0.4597136 0.002,-0.1734708 0.01158,-0.3257528 0.02894,-0.4568196 l 0.0925,-0.6591846 c 0.02313,-0.1638334 0.06265,-0.3343744 0.118546,-0.5117 0.05782,-0.1792532 0.144492,-0.328636 0.260138,-0.448138 0.108418,-0.1120332 0.255012,-0.16735 0.439664,-0.1658814 z" />
    <path
       d="m 27.374508,4.0335528 h 0.83266 L 27.715666,6.918952 Q 27.62604,7.5607942 27.23284,7.939539 26.84253,8.3153926 26.177558,8.303828 25.550172,8.292264 25.249488,7.9135184 24.951696,7.5347736 25.021086,6.9218432 l 0.4915,-2.8882904 h 0.82977 l -0.482828,2.8911816 q -0.02891,0.2630974 0.02602,0.462589 0.05493,0.1966004 0.361398,0.208165 0.31514,0.014456 0.451024,-0.1676884 0.138778,-0.1850356 0.187928,-0.4857186 z"
       style="font-style:italic;font-weight:bold;font-size:29.6057px;font-family:'Roboto Condensed';-inkscape-font-specification:'Roboto Condensed,  Bold Italic';fill:#ffffff;stroke-width:2.28704"
       id="path2492" />
    <path
       d="M 28.094412,8.2431132 28.82299,4.0335528 h 2.344748 L 31.043416,4.7418922 H 29.53422 l -0.173472,0.9945666 h 1.283686 l -0.12143,0.68521 H 29.24221 l -0.193708,1.115996 h 1.51787 L 30.44205,8.2431132 Z"
       style="font-style:italic;font-weight:bold;font-size:29.6057px;font-family:'Roboto Condensed';-inkscape-font-specification:'Roboto Condensed,  Bold Italic';fill:#ffffff;stroke-width:2.28704"
       id="path2489" />
    <path
       id="path2585"
       style="fill:#ffffff;fill-opacity:1;stroke:none;stroke-width:0.327024;stroke-dasharray:none;stroke-opacity:1"
       d="M 5.8739265,0 A 5.2916664,5.2916664 0 0 0 0.58226006,5.2916664 5.2916664,5.2916664 0 0 0 5.8739265,10.583333 5.2916664,5.2916664 0 0 0 10.189838,8.348844 H 8.9705849 C 9.2206883,6.9044622 9.4704965,5.4600686 9.7205133,4.015672 L 9.7358093,3.927719 H 10.986585 A 5.2916664,5.2916664 0 0 0 5.8739265,0 Z m 4.7513375,4.8476626 c -0.04557,0.2609372 -0.09116,0.5218572 -0.136736,0.7827944 H 11.15288 A 5.2916664,5.2916664 0 0 0 11.16559,5.2916664 5.2916664,5.2916664 0 0 0 11.14657,4.8476626 Z m -0.291868,1.6796906 c -0.05234,0.301432 -0.10465,0.6029056 -0.156993,0.9043376 H 10.7096 a 5.2916664,5.2916664 0 0 0 0.307681,-0.9043376 z" />
    <path
       d="M 6.5335643,6.4005782 5.4604255,6.3954662 5.0056189,9.0118816 H 3.5338851 l 1.2877668,-7.4404311 2.3915672,0.00511 Q 8.2454765,1.6072248 8.7667157,2.3073184 9.2930651,3.002304 9.2113019,3.99368 9.1142085,5.1025904 8.3732313,5.7566942 7.6322543,6.405688 6.5335643,6.4005778 Z M 6.0787577,2.8234478 5.6750533,5.1434722 l 0.935164,0.01022 Q 7.1161257,5.1434722 7.3920757,4.8113096 7.6680257,4.4791474 7.7293481,4.0039004 7.7753397,3.6512974 7.6833565,3.257813 7.5913729,2.8592188 7.1467867,2.8336676 Z"
       style="font-style:italic;font-weight:bold;font-size:29.6057px;font-family:'Roboto Condensed';-inkscape-font-specification:'Roboto Condensed,  Bold Italic';fill:#5a5a5a;fill-opacity:1;stroke-width:4.04236"
       id="path2510" />
    <path
       d="M 9.0964555,8.2431136 9.8250333,4.0335532 h 2.3447477 l -0.12432,0.7083394 h -1.509197 l -0.173471,0.9945666 h 1.283685 l -0.12143,0.68521 h -1.280794 l -0.193709,1.115996 h 1.517871 l -0.124321,0.7054484 z"
       style="font-style:italic;font-weight:bold;font-size:29.6057px;font-family:'Roboto Condensed';-inkscape-font-specification:'Roboto Condensed,  Bold Italic';fill:#ffffff;stroke-width:2.28704"
       id="path2761" />
  </g>
</svg>
