<?xml version="1.0" encoding="UTF-8" standalone="no"?>
<!-- Created with Inkscape (http://www.inkscape.org/) -->

<svg
   width="120"
   height="40"
   viewBox="0 0 31.749999 10.583333"
   version="1.1"
   id="svg5"
   inkscape:version="1.2.2 (b0a8486541, 2022-12-01)"
   sodipodi:docname="navbar-logo.svg"
   xmlns:inkscape="http://www.inkscape.org/namespaces/inkscape"
   xmlns:sodipodi="http://sodipodi.sourceforge.net/DTD/sodipodi-0.dtd"
   xmlns="http://www.w3.org/2000/svg"
   xmlns:svg="http://www.w3.org/2000/svg">
  <sodipodi:namedview
     id="namedview7"
     pagecolor="#ffffff"
     bordercolor="#000000"
     borderopacity="0.25"
     inkscape:showpageshadow="false"
     inkscape:pageopacity="0.0"
     inkscape:pagecheckerboard="0"
     inkscape:deskcolor="#d1d1d1"
     inkscape:document-units="px"
     showgrid="false"
     inkscape:zoom="4"
     inkscape:cx="94.625"
     inkscape:cy="-48.25"
     inkscape:window-width="2528"
     inkscape:window-height="1404"
     inkscape:window-x="2592"
     inkscape:window-y="0"
     inkscape:window-maximized="1"
     inkscape:current-layer="layer1" />
  <defs
     id="defs2" />
  <g
     inkscape:label="Livello 1"
     inkscape:groupmode="layer"
     id="layer1">
    <path
       id="path457"
       style="font-weight:500;font-size:4.23333px;font-family:Barlow;-inkscape-font-specification:'Barlow Medium';fill:#ffccaa;stroke-width:0.578243"
       d="M 1.7426457,3.3220924 C 1.6374644,3.2647176 1.5234732,3.2359914 1.4010788,3.2359914 c -0.130554,-6e-7 -0.2512824,0.032663 -0.3622529,0.097941 -0.11096796,0.065279 -0.19904996,0.1532301 -0.26432936,0.2641997 -0.0652777,0.1109707 -0.0975366,0.2320141 -0.0975353,0.3625684 -5e-7,0.1338176 0.032322,0.2581721 0.097598,0.3724068 0.065278,0.1109707 0.1532288,0.1990519 0.26419946,0.2643295 0.1109707,0.065278 0.2320148,0.097535 0.3625686,0.097535 0.130554,0 0.251282,-0.032663 0.3622528,-0.097941 0.110971,-0.065277 0.1990521,-0.1532281 0.2643298,-0.264199 0.065276,-0.1142346 0.098096,-0.2380884 0.098096,-0.371906 -10e-8,-0.1305541 -0.032663,-0.2512822 -0.097941,-0.3622529 -0.065277,-0.1109681 -0.1537474,-0.199349 -0.264717,-0.264628 -0.00694,-0.00408 -0.013691,-0.00813 -0.020703,-0.011959 z M 1.6067966,3.5824906 c 0.036871,0.019124 0.071329,0.044133 0.1031494,0.074735 0.084861,0.081596 0.1268875,0.1829842 0.1268889,0.3037467 0,0.1207623 -0.042084,0.2234645 -0.1269451,0.308324 -0.08486,0.08486 -0.1881007,0.1273851 -0.3088636,0.1273838 -0.1207623,10e-8 -0.2231658,-0.042602 -0.3080258,-0.1274627 -0.08486,-0.08486 -0.12768336,-0.187584 -0.12768336,-0.3083463 0,-0.1174984 0.042858,-0.2173106 0.12771816,-0.2989069 0.08486,-0.08486 0.1872851,-0.1271657 0.3080473,-0.1271657 0.075476,-3e-7 0.1442616,0.015818 0.2057152,0.04769 z" />
    <path
       id="path402"
       style="font-weight:500;font-size:4.23333px;font-family:Barlow;-inkscape-font-specification:'Barlow Medium';fill:#ffccaa;stroke-width:0.578243"
       d="M 2.8838739,5.538176 C 2.7729032,5.472898 2.6503046,5.440619 2.5164869,5.440619 2.3859329,5.4406183 2.2667594,5.473303 2.1590524,5.538581 2.0480844,5.60386 1.9600025,5.6918111 1.894723,5.8027807 1.829445,5.9137514 1.796669,6.034496 1.79667,6.1650501 1.7966696,6.2988676 1.829808,6.4230032 1.895085,6.5372382 1.957099,6.6482076 2.0434969,6.7362666 2.1544666,6.801546 2.2654373,6.866824 2.3861824,6.899599 2.5167363,6.899599 2.6505545,6.8995989 2.772837,6.866957 2.8838074,6.80168 2.994776,6.736402 3.082858,6.6484499 3.1481372,6.53748 c 0.065278,-0.1142346 0.097876,-0.2389045 0.097878,-0.3727223 0,-0.130554 -0.032663,-0.2512821 -0.097941,-0.3622527 C 3.0827953,5.6915368 2.9948435,5.6034552 2.8838739,5.538176 Z M 2.7265056,5.7868404 c 0.037331,0.019123 0.071329,0.044133 0.1031494,0.074735 0.084861,0.081597 0.1277048,0.1827652 0.1277048,0.303528 0,0.1207623 -0.042901,0.223683 -0.127761,0.3085431 -0.08486,0.08486 -0.1888395,0.1271443 -0.3128656,0.1271443 -0.1207624,10e-8 -0.2224277,-0.042362 -0.3040241,-0.1272219 -0.08486,-0.08486 -0.1268675,-0.187802 -0.1268661,-0.3085649 -2e-7,-0.1174985 0.042559,-0.2167931 0.1274199,-0.2983894 0.081597,-0.084861 0.1824665,-0.1271871 0.3032295,-0.1271871 0.077517,0 0.1477977,0.01554 0.2100149,0.047412 z" />
    <path
       id="path2432"
       style="font-weight:normal;font-size:4.23333px;font-family:Roboto;-inkscape-font-specification:Roboto;fill:#ffccaa;stroke-width:0.353921"
       d="M 3.6669595 2.8737263 L 3.6669595 4.8865233 L 0.67696124 4.8865233 L 0.67696124 5.2916665 L 3.6669595 5.2916665 L 3.6669595 6.899837 L 4.200777 6.899837 L 4.200777 5.3206053 L 5.1521401 5.3206053 C 5.6092877 5.3206053 5.95866 5.2147793 6.2001382 5.0027953 C 6.4434586 4.7908113 6.5649738 4.490503 6.5649738 4.1015583 C 6.5649738 3.7439505 6.4434586 3.4498591 6.2001382 3.2194416 C 5.95866 2.9890242 5.6092877 2.8737263 5.1521401 2.8737263 L 3.6669595 2.8737263 z M 4.200777 3.3103921 L 5.1521401 3.3103921 C 5.4655075 3.3103921 5.6901105 3.3915742 5.8265176 3.5537881 C 5.9629246 3.716002 6.0311562 3.900272 6.0311562 4.1067259 C 6.0311562 4.3353 5.9629246 4.5228249 5.8265176 4.6684487 C 5.6901105 4.8140726 5.4655075 4.8865233 5.1521401 4.8865233 L 4.200777 4.8865233 L 4.200777 3.3103921 z " />
    <path
       d="M 7.2395561,6.899599 V 2.8737413 H 9.7695425 V 3.3106131 H 7.7732039 v 1.2940257 h 1.7419576 v 0.434107 H 7.7732039 V 6.465492 h 2.0239893 v 0.434107 z"
       style="font-weight:normal;font-size:4.23333px;font-family:Roboto;-inkscape-font-specification:Roboto;fill:#ffccaa;stroke-width:0.353921"
       id="path2429" />
    <path
       d="M 12.811056,6.899599 11.937313,5.2682418 H 10.991678 V 6.899599 H 10.458031 V 2.8737413 h 1.332736 q 0.677427,0 1.04241,0.3096813 0.367746,0.3096814 0.367746,0.8986289 0,0.3760417 -0.204611,0.658073 -0.201846,0.2792662 -0.561297,0.4175169 l 0.945634,1.7087774 v 0.033181 z M 10.991678,3.3106131 v 1.5235218 h 0.815679 q 0.428577,0 0.644247,-0.2184359 0.218436,-0.2212011 0.218436,-0.5336475 0,-0.3483915 -0.210141,-0.5585324 -0.207375,-0.212906 -0.669132,-0.212906 z"
       style="font-weight:normal;font-size:4.23333px;font-family:Roboto;-inkscape-font-specification:Roboto;fill:#ffccaa;stroke-width:0.353921"
       id="path2426" />
    <path
       d="m 13.560374,6.899599 1.534582,-4.0258577 h 0.467286 L 17.102354,6.899599 H 16.554882 L 16.170546,5.8461293 H 14.486654 L 14.105081,6.899599 Z m 1.08665,-1.4903416 h 1.365917 L 15.329982,3.5318142 Z"
       style="font-weight:normal;font-size:4.23333px;font-family:Roboto;-inkscape-font-specification:Roboto;fill:#ffccaa;stroke-width:0.353921"
       id="path2423" />
    <path
       d="M 17.641532,6.899599 V 2.8737413 h 2.529986 V 3.3106131 H 18.17518 v 1.2940257 h 1.741957 v 0.434107 H 18.17518 V 6.465492 h 2.023989 v 0.434107 z"
       style="font-weight:normal;font-size:4.23333px;font-family:Roboto;-inkscape-font-specification:Roboto;fill:#ffccaa;stroke-width:0.353921"
       id="path2420" />
    <path
       id="path2417"
       style="font-weight:normal;font-size:4.23333px;font-family:Roboto;-inkscape-font-specification:Roboto;fill:#ffccaa;stroke-width:0.353921"
       d="M 22.269441 2.8189493 C 21.812294 2.8294365 21.438619 3.0030964 21.147546 3.3388142 C 20.847081 3.6835183 20.696927 4.1571447 20.696927 4.759916 L 20.696927 5.0141641 C 20.696927 5.6187788 20.848339 6.0936623 21.150646 6.4383665 C 21.383952 6.7043919 21.669319 6.8675388 22.006925 6.9282591 C 22.032315 6.9319073 22.057818 6.9350709 22.083406 6.9375608 L 22.083406 7.7767861 L 22.517488 7.7767861 L 22.517488 6.9391111 C 22.582588 6.93437 22.624458 6.9298094 22.624458 6.9298094 C 22.663728 6.9230294 22.702148 6.9150374 22.740213 6.9055214 C 22.906328 6.8534655 23.071151 6.784082 23.23269 6.6817625 C 23.45389 6.5232353 23.625948 6.3028517 23.749454 6.0208209 C 23.87296 5.7369469 23.934972 5.4012649 23.934972 5.0141641 L 23.934972 4.7268431 C 23.929437 4.1351318 23.779287 3.6697202 23.484354 3.330546 C 23.191262 2.9895286 22.801041 2.8189493 22.3144 2.8189493 C 22.29948 2.8189493 22.284181 2.8186109 22.269441 2.8189493 z M 22.283394 3.2721516 C 22.293564 3.2719032 22.3041 3.2721516 22.3144 3.2721516 C 22.659104 3.2721516 22.927295 3.3996598 23.119002 3.6540404 C 23.310705 3.908421 23.406839 4.2749639 23.406839 4.7542316 L 23.406839 5.0141641 C 23.406839 5.4971185 23.311969 5.8669164 23.122102 6.1231403 C 22.934083 6.3775203 22.666632 6.5045123 22.320084 6.5045123 C 21.990125 6.5045123 21.724673 6.3775208 21.52375 6.1231403 C 21.324666 5.8669164 21.22506 5.4971185 21.22506 5.0141641 L 21.22506 4.7542316 C 21.22506 4.2749639 21.32393 3.908421 21.521166 3.6540404 C 21.714026 3.4076099 21.967708 3.2798526 22.283394 3.2721516 z " />
    <path
       d="m 27.059163,2.8737413 h 0.530883 v 2.723537 q 0,0.680193 -0.436872,1.0202894 -0.436871,0.3373316 -1.023054,0.3373316 -0.616599,0 -1.03688,-0.3373316 -0.417516,-0.3400964 -0.417516,-1.0202894 v -2.723537 h 0.528116 v 2.723537 q 0,0.472817 0.254381,0.699548 0.257146,0.2239659 0.671899,0.2239659 0.420281,0 0.674662,-0.2239659 0.254381,-0.226731 0.254381,-0.699548 z"
       style="font-weight:normal;font-size:4.23333px;font-family:Roboto;-inkscape-font-specification:Roboto;fill:#ffccaa;stroke-width:0.353921"
       id="path2414" />
    <path
       d="M 28.427846,6.899599 V 2.8737413 h 2.529985 v 0.4368718 h -1.996339 v 1.2940257 h 1.741958 v 0.434107 H 28.961492 V 6.465492 h 2.02399 v 0.434107 z"
       style="font-weight:normal;font-size:4.23333px;font-family:Roboto;-inkscape-font-specification:Roboto;fill:#ffccaa;stroke-width:0.353921"
       id="path2411" />
  </g>
</svg>
