<?xml version="1.0" encoding="UTF-8" standalone="no"?>
<!-- Created with Inkscape (http://www.inkscape.org/) -->

<svg
   width="2000"
   height="500"
   viewBox="0 0 529.16665 132.29166"
   version="1.1"
   id="svg5"
   xml:space="preserve"
   inkscape:version="1.2.2 (b0a8486541, 2022-12-01)"
   sodipodi:docname="davosky-logo.svg"
   inkscape:export-filename="davosky_hoodie.png"
   inkscape:export-xdpi="300"
   inkscape:export-ydpi="300"
   xmlns:inkscape="http://www.inkscape.org/namespaces/inkscape"
   xmlns:sodipodi="http://sodipodi.sourceforge.net/DTD/sodipodi-0.dtd"
   xmlns="http://www.w3.org/2000/svg"
   xmlns:svg="http://www.w3.org/2000/svg"><sodipodi:namedview
     id="namedview7"
     pagecolor="#ffffff"
     bordercolor="#000000"
     borderopacity="0.25"
     inkscape:showpageshadow="false"
     inkscape:pageopacity="0.0"
     inkscape:pagecheckerboard="0"
     inkscape:deskcolor="#d1d1d1"
     inkscape:document-units="px"
     showgrid="false"
     inkscape:zoom="0.42355696"
     inkscape:cx="652.80476"
     inkscape:cy="1005.7679"
     inkscape:window-width="2528"
     inkscape:window-height="1404"
     inkscape:window-x="2592"
     inkscape:window-y="0"
     inkscape:window-maximized="1"
     inkscape:current-layer="layer1" /><defs
     id="defs2"><inkscape:path-effect
       effect="powerstroke"
       id="path-effect26927"
       is_visible="true"
       lpeversion="1"
       offset_points="0,1"
       not_jump="false"
       sort_points="true"
       interpolator_type="CubicBezierJohan"
       interpolator_beta="0.2"
       start_linecap_type="zerowidth"
       linejoin_type="extrp_arc"
       miter_limit="4"
       scale_width="1"
       end_linecap_type="zerowidth" /><inkscape:path-effect
       effect="powerstroke"
       id="path-effect26144"
       is_visible="true"
       lpeversion="1"
       offset_points="0,1"
       not_jump="false"
       sort_points="true"
       interpolator_type="CubicBezierJohan"
       interpolator_beta="0.2"
       start_linecap_type="zerowidth"
       linejoin_type="extrp_arc"
       miter_limit="4"
       scale_width="1"
       end_linecap_type="zerowidth" /></defs><g
     inkscape:label="Livello 1"
     inkscape:groupmode="layer"
     id="layer1"><path
       d="m 234.57739,27.29426 c 0,1.98784 0,3.69478 -0.10804,4.60226 -0.0649,0.6266 -0.19439,1.10195 -0.62661,1.18839 -0.1944,0.0432 -0.45375,0.0863 -0.77783,0.0863 -0.25914,0 -0.34575,0.0649 -0.34575,0.1729 0,0.15122 0.15141,0.21606 0.43216,0.21606 0.86428,0 2.22549,-0.0649 2.7225,-0.0649 0.60498,0 1.96621,0.0649 3.39225,0.0649 0.23765,0 0.41055,-0.0649 0.41055,-0.21606 0,-0.10804 -0.10804,-0.1729 -0.34573,-0.1729 -0.32408,0 -0.79944,-0.0432 -1.10193,-0.0863 -0.64822,-0.0864 -0.77785,-0.56179 -0.84268,-1.16678 -0.10804,-0.92909 -0.10804,-2.63603 -0.10804,-4.62387 v -8.8588 l 2.72246,0.0649 c 1.92302,0.0432 2.50642,0.64821 2.54964,1.21 l 0.0219,0.23766 c 0.0219,0.32411 0.0649,0.43215 0.23762,0.43215 0.12953,0 0.17291,-0.12953 0.1944,-0.34571 0,-0.56177 0.0649,-2.05265 0.0649,-2.5064 0,-0.3241 -0.0219,-0.45373 -0.1729,-0.45373 -0.0864,0 -0.25914,0.0432 -0.58336,0.10804 -0.32412,0.0432 -0.79944,0.10804 -1.49086,0.10804 h -8.55636 c -0.71301,0 -1.5341,-0.0432 -2.16067,-0.10804 -0.54018,-0.0432 -0.75628,-0.2593 -0.92911,-0.2593 -0.12953,0 -0.19439,0.12973 -0.25914,0.41054 -0.0434,0.1729 -0.45375,2.13908 -0.45375,2.48479 0,0.23766 0.0434,0.34571 0.1944,0.34571 0.12952,0 0.19439,-0.0864 0.23765,-0.2593 0.0434,-0.17291 0.15141,-0.43214 0.36733,-0.75624 0.3241,-0.47536 0.84268,-0.58338 2.09587,-0.6266 l 3.21944,-0.0864 z"
       style="font-weight:bold;font-size:6.93716px;line-height:1.25;font-family:'Trajan Pro';-inkscape-font-specification:'Trajan Pro Bold';fill:#5f554c;stroke-width:1.62051;fill-opacity:1"
       id="path761" /><path
       d="m 249.29166,25.65214 c -0.0649,0 -0.12953,-0.0215 -0.12953,-0.12973 v -0.38892 c 0,-2.78728 0,-3.4571 0.0434,-4.04047 0.0434,-0.64823 0.19439,-0.9075 0.71301,-0.99392 0.21616,-0.0432 0.38892,-0.0649 0.54016,-0.0649 0.23763,0 0.34573,-0.0649 0.34573,-0.19439 0,-0.12953 -0.12953,-0.1729 -0.38893,-0.1729 -0.75622,0 -2.07427,0.0432 -2.528,0.0432 -0.51856,0 -1.77177,-0.0432 -2.78727,-0.0432 -0.25913,0 -0.41055,0.0432 -0.41055,0.1729 0,0.12953 0.12953,0.19439 0.32412,0.19439 0.28095,0 0.60499,0.0215 0.7562,0.0649 0.60501,0.17291 0.77787,0.3673 0.82107,0.99392 0.0219,0.58337 0.0219,1.10193 0.0219,3.88923 v 3.24102 c 0,1.68533 0,3.13299 -0.0864,3.91084 -0.0649,0.54016 -0.17291,0.88587 -0.56179,0.9723 -0.17291,0.0432 -0.38891,0.0649 -0.66981,0.0649 -0.23765,0 -0.30244,0.10804 -0.30244,0.1944 0,0.12952 0.12953,0.19439 0.36732,0.19439 0.75624,0 2.00945,-0.0649 2.44157,-0.0649 0.54019,0 1.8582,0.0649 3.0898,0.0649 0.23765,0 0.38893,-0.0649 0.38893,-0.19439 0,-0.0864 -0.0864,-0.1944 -0.30244,-0.1944 -0.28094,0 -0.71302,-0.0215 -0.97232,-0.0649 -0.56177,-0.0863 -0.66981,-0.43214 -0.73464,-0.95069 -0.0863,-0.79946 -0.10804,-2.20391 -0.10804,-3.88924 v -1.40444 c 0,-0.0864 0.0649,-0.10804 0.12953,-0.10804 h 7.17347 c 0.0434,0 0.10804,0.0432 0.10804,0.10804 v 1.40444 c 0,1.68533 0,3.08978 -0.0863,3.86763 -0.0649,0.54016 -0.17291,0.88587 -0.56177,0.9723 -0.17291,0.0432 -0.38893,0.0649 -0.69142,0.0649 -0.21616,0 -0.30244,0.10804 -0.30244,0.1944 0,0.12952 0.15142,0.19439 0.41052,0.19439 0.73465,0 2.07425,-0.0649 2.5064,-0.0649 0.51855,0 1.77176,0.0649 3.00336,0.0649 0.23765,0 0.38893,-0.0649 0.38893,-0.19439 0,-0.0864 -0.10804,-0.1944 -0.30244,-0.1944 -0.30243,0 -0.71304,-0.0215 -0.97234,-0.0649 -0.58336,-0.0863 -0.69138,-0.43214 -0.75622,-0.95069 -0.0864,-0.79946 -0.0864,-2.24712 -0.0864,-3.93245 v -3.24102 c 0,-2.7873 0,-3.30586 0.0434,-3.88923 0.0434,-0.64823 0.19439,-0.9075 0.69142,-0.99392 0.23765,-0.0432 0.41051,-0.0649 0.56175,-0.0649 0.21616,0 0.34573,-0.0649 0.34573,-0.19439 0,-0.12953 -0.12953,-0.1729 -0.41053,-0.1729 -0.73464,0 -1.98785,0.0432 -2.4416,0.0432 -0.49692,0 -1.83655,-0.0432 -2.85209,-0.0432 -0.28092,0 -0.41053,0.0432 -0.41053,0.1729 0,0.12953 0.10804,0.19439 0.32412,0.19439 0.25944,0 0.58336,0.0215 0.73462,0.0649 0.60498,0.17291 0.77785,0.3673 0.82108,0.99392 0.0219,0.58337 0.0434,1.25319 0.0434,4.04047 v 0.38892 c 0,0.10805 -0.0649,0.12973 -0.10804,0.12973 z"
       style="font-weight:bold;font-size:6.93716px;line-height:1.25;font-family:'Trajan Pro';-inkscape-font-specification:'Trajan Pro Bold';fill:#5f554c;stroke-width:1.62051;fill-opacity:1"
       id="path758" /><path
       d="m 265.34553,28.22337 c 0,1.68533 0,3.13299 -0.0864,3.91084 -0.0649,0.54016 -0.17291,0.88587 -0.56175,0.9723 -0.17291,0.0432 -0.38893,0.0649 -0.66983,0.0649 -0.23765,0 -0.30244,0.10804 -0.30244,0.1944 0,0.12952 0.12953,0.19439 0.36734,0.19439 0.38889,0 0.86424,-0.0215 1.31799,-0.0432 0.45375,0 0.86429,-0.0215 1.08035,-0.0215 0.56179,0 1.2748,0.0215 2.2039,0.0432 0.92909,0.0432 2.07426,0.0649 3.50031,0.0649 0.71303,0 0.88588,0 1.01552,-0.47534 0.10804,-0.36732 0.25916,-1.62053 0.25916,-2.03106 0,-0.19439 -0.0219,-0.43212 -0.1729,-0.43212 -0.12953,0 -0.17291,0.0864 -0.21617,0.28086 -0.12952,0.75625 -0.34568,1.14517 -0.82104,1.36123 -0.49695,0.21608 -1.29643,0.23769 -1.79337,0.23769 -1.94463,0 -2.52801,-0.28088 -2.57121,-1.53409 -0.0219,-0.54016 0,-2.09587 0,-2.72246 v -1.46927 c 0,-0.10804 0.0219,-0.19439 0.10804,-0.19439 0.47536,0 2.63605,0.0432 2.98176,0.0864 0.71303,0.0649 0.95072,0.34571 1.05872,0.71302 0.0434,0.23769 0.0434,0.47536 0.0649,0.66981 0,0.0863 0.0432,0.15122 0.17291,0.15122 0.1729,0 0.19439,-0.2593 0.19439,-0.41053 0,-0.12953 0.0434,-0.86427 0.0863,-1.23158 0.10804,-0.92911 0.15142,-1.23161 0.15142,-1.33963 0,-0.10804 -0.0649,-0.19439 -0.15142,-0.19439 -0.0863,0 -0.15142,0.10804 -0.30243,0.23767 -0.17291,0.19439 -0.45375,0.23769 -0.9075,0.28089 -0.43212,0.0432 -2.89531,0.0432 -3.32745,0.0432 -0.10804,0 -0.12953,-0.0863 -0.12953,-0.1944 v -4.53744 c 0,-0.10804 0.0434,-0.1729 0.12953,-0.1729 0.38893,0 2.65766,0.0432 2.98176,0.0864 0.95069,0.0864 1.10193,0.34571 1.25319,0.66981 0.10804,0.21606 0.12953,0.54016 0.12953,0.66981 0,0.15122 0.0219,0.23767 0.15141,0.23767 0.15142,0 0.1944,-0.21606 0.21614,-0.30249 0.0434,-0.21606 0.0864,-1.01552 0.10804,-1.20998 0.0434,-0.84267 0.15142,-1.05873 0.15142,-1.18838 0,-0.0864 -0.0219,-0.17291 -0.12953,-0.17291 -0.0863,0 -0.19439,0.0649 -0.30243,0.0864 -0.15142,0.0215 -0.45375,0.0863 -0.79944,0.10804 -0.36732,0.0215 -4.58065,0 -5.18562,0 -0.54018,0 -1.75015,-0.0432 -2.74409,-0.0432 -0.28092,0 -0.43214,0.0432 -0.43214,0.17291 0,0.12953 0.12953,0.19439 0.3241,0.19439 0.28095,0 0.60499,0.0215 0.75625,0.0649 0.60498,0.17291 0.77785,0.3673 0.82104,0.99391 0.0219,0.58338 0.0219,1.10196 0.0219,3.88924 z"
       style="font-weight:bold;font-size:6.93716px;line-height:1.25;font-family:'Trajan Pro';-inkscape-font-specification:'Trajan Pro Bold';fill:#5f554c;stroke-width:1.62051;fill-opacity:1"
       id="path755" /><path
       d="m 140.64571,69.93618 c 0,7.54645 0,14.02655 -0.41012,17.47168 -0.3281,2.37879 -0.73824,4.18337 -2.37877,4.51149 -0.73824,0.16387 -1.72256,0.32808 -2.95297,0.32808 -0.98432,0 -1.31242,0.24616 -1.31242,0.65623 0,0.57418 0.57419,0.82027 1.64053,0.82027 1.64054,0 3.77323,-0.16387 5.65984,-0.16387 1.96864,-0.0819 3.77323,-0.0819 4.67552,-0.0819 2.05067,0 4.92161,0.24612 8.03862,0.49212 3.11701,0.24615 6.4801,0.49219 9.43306,0.49219 15.17495,0 23.70577,-5.82392 27.47901,-9.67916 4.59353,-4.67552 8.94095,-12.55011 8.94095,-22.88546 0,-9.76118 -3.85528,-16.56937 -7.95662,-20.83476 -8.94097,-9.35107 -22.63944,-9.35107 -32.89278,-9.35107 -4.9216,0 -10.08928,0.24617 -12.6321,0.24617 -2.29675,0 -7.46443,-0.24617 -11.81184,-0.24617 -1.2304,0 -1.80459,0.16387 -1.80459,0.73827 0,0.57416 0.49216,0.73823 1.39445,0.73823 1.14837,0 2.54283,0.0821 3.19904,0.24617 2.70688,0.57418 3.3631,1.88661 3.52715,4.6755 0.16405,2.62486 0.16405,4.9216 0.16405,17.38965 z m 10.25334,-15.74912 c 0,-6.48012 0,-13.61644 0.082,-16.40535 0,-0.90229 0.24608,-1.31243 0.98431,-1.64052 0.65622,-0.32812 3.69121,-0.57419 5.33174,-0.57419 6.39809,0 15.74913,0.98434 23.29559,8.20269 3.52716,3.36307 7.87461,10.08925 7.87461,20.50666 0,8.44872 -1.64055,15.91315 -6.89029,20.42463 -4.92161,4.26537 -10.49943,5.90594 -18.86614,5.90594 -6.48012,0 -9.67916,-1.72258 -10.74551,-3.28108 -0.65621,-0.9023 -0.82025,-4.18336 -0.90228,-6.23404 -0.082,-1.55851 -0.16407,-7.87456 -0.16407,-16.56939 z"
       style="font-weight:bold;font-size:19.1004px;line-height:1.25;font-family:'Trajan Pro';-inkscape-font-specification:'Trajan Pro Bold';fill:#5f554c;stroke-width:6.152;fill-opacity:1"
       id="path752" /><path
       d="m 233.03263,69.77977 c 0.29746,0 0.47592,0.11888 0.59495,0.41643 l 4.7593,12.61212 c 0.29746,0.71389 -0.11888,1.24931 -0.53544,1.3683 -0.59491,0.0594 -0.83286,0.17853 -0.83286,0.53542 0,0.41644 0.71387,0.41644 1.78474,0.47593 4.75928,0.11888 9.10215,0.11888 11.24382,0.11888 2.20115,0 2.73658,-0.11888 2.73658,-0.59491 0,-0.41644 -0.29746,-0.47594 -0.77338,-0.47594 -0.71391,0 -1.60626,-0.0594 -2.49862,-0.23795 -1.24932,-0.29745 -2.97457,-1.13033 -5.23523,-6.48453 -3.80744,-9.04265 -13.32602,-33.31505 -14.75383,-36.58705 -0.59494,-1.36829 -0.95188,-1.90372 -1.4873,-1.90372 -0.59492,0 -0.95186,0.65441 -1.66575,2.37965 l -14.93236,37.36043 c -1.18983,2.97457 -2.32018,4.99725 -5.05677,5.35421 -0.47594,0.0594 -1.30882,0.11888 -1.84424,0.11888 -0.47594,0 -0.71391,0.11889 -0.71391,0.47594 0,0.47593 0.35695,0.59491 1.13035,0.59491 3.09355,0 6.36559,-0.17853 7.02,-0.17853 1.84421,0 4.40236,0.17853 6.30608,0.17853 0.65443,0 1.01137,-0.11888 1.01137,-0.59491 0,-0.35695 -0.17853,-0.47594 -0.8924,-0.47594 h -0.89234 c -1.84426,0 -2.37968,-0.77337 -2.37968,-1.84422 0,-0.71389 0.29745,-2.14167 0.8924,-3.62895 l 3.21252,-8.50722 c 0.11908,-0.35696 0.23797,-0.47595 0.53542,-0.47595 z m -12.07675,-2.97455 c -0.23797,0 -0.29745,-0.17853 -0.23797,-0.41644 l 5.47323,-14.63482 c 0.0594,-0.23797 0.17853,-0.53543 0.35694,-0.53543 0.17853,0 0.23797,0.29746 0.29745,0.53543 l 5.35425,14.6943 c 0.0594,0.17853 0,0.35696 -0.29745,0.35696 z"
       style="font-weight:bold;font-size:19.1004px;line-height:1.25;font-family:'Trajan Pro';-inkscape-font-specification:'Trajan Pro Bold';fill:#5f554c;stroke-width:4.46183;fill-opacity:1"
       id="path749" /><path
       d="m 263.91682,82.51087 c 1.13033,2.79608 1.48727,3.62896 2.26068,3.62896 0.83286,0 1.18979,-0.95186 2.7366,-4.40235 1.30877,-2.97455 4.10485,-9.45909 7.9123,-18.1448 3.21249,-7.31739 4.81878,-10.52993 7.13894,-16.12209 1.60627,-3.80742 2.49861,-4.81878 3.272,-5.3542 1.07087,-0.71389 2.32014,-0.71389 2.91508,-0.71389 0.59489,0 0.95182,-0.11889 0.95182,-0.53543 0,-0.41644 -0.4759,-0.53542 -1.24927,-0.53542 -1.78476,0 -4.58081,0.17853 -5.59218,0.17853 -0.77339,0 -3.272,-0.17853 -6.24656,-0.17853 -1.13033,0 -1.66575,0.11888 -1.66575,0.59493 0,0.41643 0.47592,0.47592 1.01134,0.47592 0.77339,0 1.66573,0.0594 2.37964,0.29745 0.53542,0.17853 0.77337,0.65441 0.77337,1.13033 0,0.53542 -0.23795,1.42778 -0.5354,2.20117 -1.42778,3.92641 -9.16163,23.08256 -11.71976,29.62658 h -0.23795 L 257.78924,47.64906 c -0.83289,-2.14169 -1.36829,-3.80744 -1.36829,-4.58081 0,-0.53543 0.17852,-0.95186 0.5949,-1.24932 0.47594,-0.35695 1.3683,-0.41643 2.32016,-0.41643 0.5354,0 0.89238,-0.11889 0.89238,-0.53543 0,-0.41644 -0.65441,-0.53542 -1.3683,-0.53542 -2.97455,0 -5.83013,0.17853 -7.31741,0.17853 -2.08221,0 -5.4732,-0.17853 -8.62621,-0.17853 -0.89238,0 -1.54679,0.0594 -1.54679,0.53542 0,0.35696 0.17853,0.53543 0.71389,0.53543 0.47594,0 1.42778,0 2.32016,0.23795 2.14167,0.59492 3.15304,1.24931 4.52134,4.52133 z"
       style="font-weight:bold;font-size:19.1004px;line-height:1.25;font-family:'Trajan Pro';-inkscape-font-specification:'Trajan Pro Bold';fill:#5f554c;stroke-width:4.46183;fill-opacity:1"
       id="path746" /><path
       d="m 314.96024,86.13983 c 15.11077,0 24.62933,-10.76791 24.62933,-24.39137 0,-13.62346 -9.22111,-22.24969 -24.0344,-22.24969 -17.84734,0 -24.56985,13.14754 -24.56985,23.32054 0,10.52993 6.90097,23.32052 23.97492,23.32052 z m 2.49863,-2.97455 c -11.42231,0 -18.26376,-9.81604 -18.26376,-22.19021 0,-14.81329 7.79333,-18.62071 14.63482,-18.62071 9.75652,0 17.43087,8.26927 17.43087,21.59528 0,17.19293 -9.63753,19.21564 -13.80193,19.21564 z"
       style="font-weight:bold;font-size:19.1004px;line-height:1.25;font-family:'Trajan Pro';-inkscape-font-specification:'Trajan Pro Bold';fill:#5f554c;stroke-width:4.46183;fill-opacity:1"
       id="path743" /><path
       d="m 358.03182,86.13983 c 3.15301,0 6.48454,-0.53542 9.4591,-2.43915 4.28336,-2.79608 5.59214,-6.90095 5.59214,-10.35144 0,-5.65166 -2.55809,-9.75656 -9.75652,-15.17025 l -1.66573,-1.24931 c -4.93781,-3.74794 -6.30609,-5.83013 -6.30609,-8.56673 0,-3.56945 2.67712,-6.12758 7.07945,-6.12758 3.86692,0 5.59217,1.78474 6.48453,2.91507 1.2493,1.54676 1.54677,3.391 1.54677,3.92642 0,0.71389 0.17853,1.07083 0.59492,1.07083 0.47592,0 0.65439,-0.47592 0.65439,-1.78474 0,-4.6403 0.23797,-6.36555 0.23797,-7.13892 0,-0.41644 -0.29745,-0.59491 -0.83289,-0.71389 -1.54677,-0.41644 -4.04542,-1.01137 -7.91232,-1.01137 -8.26927,0 -13.74247,4.6998 -13.74247,11.24384 0,4.81877 2.26068,8.98315 8.8047,14.09939 l 2.7366,2.14169 c 4.93777,3.86692 5.83012,6.6035 5.83012,9.51858 0,3.15302 -2.61761,6.78199 -7.9718,6.78199 -3.68849,0 -7.19842,-1.60627 -8.50724,-6.00861 -0.29745,-1.01135 -0.5354,-2.26066 -0.5354,-3.03405 0,-0.47592 -0.0594,-1.01135 -0.59495,-1.01135 -0.4759,0 -0.65438,0.65441 -0.71387,1.54677 -0.0594,0.95186 -0.29745,4.52133 -0.29745,7.79333 0,1.30882 0.17853,1.60627 1.13031,2.02271 2.55813,1.13033 5.23524,1.54677 8.68571,1.54677 z"
       style="font-weight:bold;font-size:19.1004px;line-height:1.25;font-family:'Trajan Pro';-inkscape-font-specification:'Trajan Pro Bold';fill:#5f554c;stroke-width:4.46183;fill-opacity:1"
       id="path740" /><path
       d="m 394.49995,57.58409 c 0,-9.04265 0,-10.7084 0.11889,-12.61212 0.11888,-2.08219 0.59488,-3.09353 2.20115,-3.39101 0.71391,-0.11888 1.07085,-0.17852 1.66573,-0.17852 0.47596,0 0.8329,-0.11889 0.8329,-0.53541 0,-0.41644 -0.41642,-0.53542 -1.24931,-0.53542 -2.02269,0 -5.77065,0.17853 -7.19843,0.17853 -1.4278,0 -5.17572,-0.17853 -8.32874,-0.17853 -0.89239,0 -1.30881,0.11888 -1.30881,0.53542 0,0.41644 0.35693,0.53541 1.01132,0.53541 0.8329,0 1.84428,0.0594 2.32018,0.17852 1.96318,0.41644 2.43914,1.3683 2.55813,3.39101 0.11888,1.90372 0.11888,3.56947 0.11888,12.61212 v 10.47044 c 0,5.47318 0,10.17298 -0.29747,12.6716 -0.23795,1.72526 -0.5354,3.03405 -1.72523,3.27202 -0.53543,0.11889 -1.2493,0.23795 -2.14167,0.23795 -0.71393,0 -0.95188,0.17853 -0.95188,0.47594 0,0.41644 0.41647,0.59491 1.18983,0.59491 2.37966,0 6.12758,-0.17853 7.49588,-0.17853 1.48728,0 5.23524,0.17853 8.56674,0.17853 0.65439,0 1.13033,-0.17853 1.13033,-0.59491 0,-0.29745 -0.29745,-0.47594 -0.77339,-0.47594 -0.77338,0 -2.08219,-0.11888 -2.91507,-0.23795 -1.4873,-0.23797 -2.02268,-1.54676 -2.14169,-3.21251 -0.17853,-2.55813 -0.17853,-7.25793 -0.17853,-12.73111 v -5.41369 h 0.29748 l 0.65438,0.89236 c 1.24932,1.72523 12.96908,15.4677 15.58669,17.78784 2.55809,2.26067 4.16438,3.56947 7.37689,3.86693 1.24932,0.11888 2.32012,0.11888 4.10488,0.11888 h 5.17572 c 1.13033,0 1.4278,-0.17853 1.4278,-0.59491 0,-0.35695 -0.35694,-0.47594 -0.77339,-0.47594 -0.71387,0 -1.9037,-0.17853 -3.68846,-0.89236 -3.2125,-1.24931 -5.88961,-3.9264 -8.50724,-6.42505 -2.32012,-2.20115 -13.9804,-14.75379 -16.12207,-17.54987 2.02271,-2.14169 11.00587,-11.06535 12.85009,-12.85009 2.55813,-2.49862 4.58081,-3.74794 6.42503,-4.46183 1.13033,-0.41643 2.61761,-0.6544 3.45051,-0.6544 0.59488,0 0.89234,-0.11889 0.89234,-0.53543 0,-0.41644 -0.41642,-0.53542 -1.01133,-0.53542 -1.84426,0 -5.11626,0.17853 -6.96047,0.17853 -1.60625,0 -4.87825,-0.17853 -6.12759,-0.17853 -0.6544,0 -0.95186,0.11888 -0.95186,0.53542 0,0.35696 0.23795,0.47594 0.7734,0.59491 0.5949,0.11888 0.83285,0.53542 0.83285,1.18983 0,1.01134 -1.30879,2.49862 -2.97454,4.46183 -1.72526,2.0227 -10.41095,10.88688 -12.43363,13.08806 h -0.29748 z"
       style="font-weight:bold;font-size:19.1004px;line-height:1.25;font-family:'Trajan Pro';-inkscape-font-specification:'Trajan Pro Bold';fill:#5f554c;stroke-width:4.46183;fill-opacity:1"
       id="path737" /><path
       d="m 439.59418,74.77702 c 0,0.95186 0,3.45049 -0.17853,5.94911 -0.11909,1.72526 -0.65441,3.03405 -1.84422,3.27202 -0.53544,0.11889 -1.24931,0.23795 -2.08221,0.23795 -0.65439,0 -0.95184,0.17853 -0.95184,0.47594 0,0.47593 0.47592,0.59491 1.30878,0.59491 2.20119,0 5.94911,-0.17853 7.43639,-0.17853 1.60629,0 5.35421,0.17853 9.10217,0.17853 0.77338,0 1.2493,-0.17853 1.2493,-0.59491 0,-0.29745 -0.29746,-0.47594 -0.95185,-0.47594 -0.83289,0 -2.14169,-0.11888 -2.97454,-0.23795 -1.78474,-0.23797 -2.32018,-1.54676 -2.43917,-3.27202 -0.17852,-2.49862 -0.17852,-4.99725 -0.17852,-5.94911 v -4.87827 c 0,-1.9632 0,-3.80744 0.89237,-5.94911 1.07083,-2.55813 9.39961,-16.53853 11.36279,-18.91819 1.30881,-1.60625 1.96324,-2.32014 3.21252,-2.91506 0.89237,-0.47592 2.02272,-0.71389 2.61763,-0.71389 0.65441,0 1.13033,-0.17853 1.13033,-0.59491 0,-0.35696 -0.41642,-0.47594 -1.07085,-0.47594 -1.13031,0 -5.05674,0.17853 -6.36555,0.17853 -1.72524,0 -3.62894,-0.17853 -5.59216,-0.17853 -0.71389,0 -1.01134,0.11888 -1.01134,0.53542 0,0.35696 0.53542,0.47594 1.07082,0.59493 1.01137,0.23795 1.24932,0.89236 1.24932,1.48726 0,0.77339 -0.23795,1.78474 -0.83286,3.09355 -0.83288,1.84422 -8.32877,14.93226 -8.92366,16.36006 -0.95188,-1.66575 -9.28064,-16.00312 -10.11351,-17.78786 -0.41646,-0.83287 -0.71389,-1.54676 -0.71389,-2.02268 0,-0.47594 0.29743,-0.95186 0.83287,-1.07085 0.89236,-0.23797 1.30882,-0.29745 1.30882,-0.65441 0,-0.35693 -0.29745,-0.53542 -0.89238,-0.53542 -2.67711,0 -5.11622,0.17853 -6.36555,0.17853 -1.96322,0 -6.42505,-0.17853 -7.49588,-0.17853 -0.71391,0 -1.13033,0.17853 -1.13033,0.53542 0,0.41644 0.41642,0.53543 0.89238,0.53543 0.71387,0 1.72523,0.35695 2.49861,0.77339 1.13032,0.65439 2.61761,2.14167 4.10489,4.34284 2.08217,3.09354 10.05401,16.18159 10.47043,17.13345 0.77341,1.72524 1.3683,3.03405 1.3683,6.24657 z"
       style="font-weight:bold;font-size:19.1004px;line-height:1.25;font-family:'Trajan Pro';-inkscape-font-specification:'Trajan Pro Bold';fill:#5f554c;stroke-width:4.46183;fill-opacity:1"
       id="path734" /><path
       d="m 242.11914,117.9505 c 1.88934,0 4.11018,-0.16568 5.27033,-0.62979 0.49718,-0.19901 0.62978,-0.33145 0.76236,-0.82866 0.29838,-0.96128 0.62979,-3.41412 0.62979,-3.74559 0,-0.23203 -0.13274,-0.49719 -0.33147,-0.49719 -0.23205,0 -0.29838,0.13274 -0.36461,0.56348 -0.0994,0.53036 -0.4972,1.32586 -0.99441,1.88938 -1.16015,1.29269 -2.58544,1.4916 -5.17088,1.4916 -3.91133,0 -9.08225,-3.18209 -9.08225,-9.87775 0,-2.75117 0.53036,-5.46921 2.68491,-7.32542 1.32588,-1.127 2.95006,-1.59105 5.50237,-1.59105 2.68487,0 4.64052,0.69608 5.63495,1.65734 0.72924,0.72923 1.09382,1.72363 1.127,2.61859 0,0.36461 0.0663,0.59664 0.29839,0.59664 0.26506,0 0.36459,-0.29832 0.39774,-0.69608 0.0329,-0.5635 0.0329,-2.12139 0.0994,-3.04949 0.0663,-0.99442 0.13274,-1.32589 0.13274,-1.55792 0,-0.16567 -0.0994,-0.29831 -0.43092,-0.33145 -0.86181,-0.0994 -1.82305,-0.29833 -2.91691,-0.46407 -1.32588,-0.16567 -2.41972,-0.29831 -4.24281,-0.29831 -4.34223,0 -7.12654,1.12699 -9.24795,2.9832 -2.78437,2.48601 -3.41414,5.80069 -3.41414,7.7232 0,2.71805 0.76237,5.90012 3.64617,8.31984 2.65177,2.22084 6.03273,3.0495 10.01035,3.0495 z"
       style="font-weight:bold;font-size:10.6422px;line-height:1.25;font-family:'Trajan Pro';-inkscape-font-specification:'Trajan Pro Bold';fill:#5f554c;stroke-width:2.486;fill-opacity:1"
       id="path731" /><path
       d="m 263.76398,117.9505 c 7.5243,0 12.23115,-5.07144 12.23115,-11.53507 0,-6.46361 -4.57427,-10.54067 -11.93285,-10.54067 -8.85016,0 -12.23117,6.2316 -12.23117,11.03788 0,5.00514 3.44726,11.03786 11.93287,11.03786 z m 1.19325,-1.52476 c -5.50234,0 -8.81703,-4.57423 -8.81703,-10.37492 0,-6.96084 3.81186,-8.68446 7.06026,-8.68446 4.70683,0 8.45242,3.84503 8.45242,10.07664 0,8.0215 -4.64056,8.98274 -6.69565,8.98274 z"
       style="font-weight:bold;font-size:10.6422px;line-height:1.25;font-family:'Trajan Pro';-inkscape-font-specification:'Trajan Pro Bold';fill:#5f554c;stroke-width:2.486;fill-opacity:1"
       id="path728" /><path
       d="m 282.92275,102.23894 h 0.0994 c 0.5635,0.49719 3.64615,3.91131 6.82826,6.9608 3.04949,2.95009 6.69564,6.4305 8.51869,8.12097 0.2984,0.29837 0.6961,0.59665 1.19329,0.59665 0.23204,0 0.46405,-0.26506 0.46405,-0.89497 l 0.33147,-17.76667 c 0.0329,-1.59103 0.26506,-2.08823 1.06068,-2.32026 0.36465,-0.0994 0.59666,-0.0994 0.89497,-0.0994 0.33149,0 0.49723,-0.13254 0.49723,-0.29832 0,-0.232 -0.26506,-0.26518 -0.66294,-0.26518 -1.42531,0 -2.51915,0.0663 -2.85064,0.0663 -0.62977,0 -2.18766,-0.0663 -3.71242,-0.0663 -0.43092,0 -0.72923,0.0331 -0.72923,0.26518 0,0.16568 0.0994,0.29832 0.46405,0.29832 0.39778,0 1.09384,0 1.52476,0.16567 0.69609,0.26519 0.96123,0.76237 0.99441,2.48602 l 0.29838,12.52946 h -0.13274 c -0.43092,-0.39779 -4.30909,-4.37538 -6.2979,-6.33103 -4.24278,-4.14334 -8.61816,-8.61815 -8.98278,-8.98276 -0.49719,-0.49721 -0.89497,-0.92811 -1.25956,-0.92811 -0.29839,0 -0.4972,0.39777 -0.4972,0.96124 l -0.26506,16.70599 c -0.0329,2.45284 -0.13275,3.21521 -0.89495,3.41408 -0.39778,0.0994 -0.92811,0.13274 -1.32589,0.13274 -0.26506,0 -0.46405,0.13274 -0.46405,0.29837 0,0.26506 0.26506,0.29838 0.66292,0.29838 1.4916,0 2.8838,-0.0994 3.14894,-0.0994 0.53038,0 1.88938,0.0994 3.77875,0.0994 0.39776,0 0.66294,-0.0663 0.66294,-0.29838 0,-0.16567 -0.16568,-0.29837 -0.49719,-0.29837 -0.46409,0 -1.02755,-0.0329 -1.52478,-0.19901 -0.56345,-0.19902 -0.9281,-0.86184 -0.99439,-3.04954 z"
       style="font-weight:bold;font-size:10.6422px;line-height:1.25;font-family:'Trajan Pro';-inkscape-font-specification:'Trajan Pro Bold';fill:#5f554c;stroke-width:2.486;fill-opacity:1"
       id="path725" /><path
       d="m 310.79916,102.23894 h 0.0994 c 0.56352,0.49719 3.64615,3.91131 6.82824,6.9608 3.04951,2.95009 6.69566,6.4305 8.51873,8.12097 0.29838,0.29837 0.69606,0.59665 1.19329,0.59665 0.23206,0 0.46405,-0.26506 0.46405,-0.89497 l 0.33145,-17.76667 c 0.0329,-1.59103 0.26506,-2.08823 1.0607,-2.32026 0.36461,-0.0994 0.59664,-0.0994 0.89497,-0.0994 0.33145,0 0.49719,-0.13254 0.49719,-0.29832 0,-0.232 -0.26506,-0.26518 -0.66292,-0.26518 -1.42532,0 -2.51915,0.0663 -2.85063,0.0663 -0.62978,0 -2.18769,-0.0663 -3.71243,-0.0663 -0.43094,0 -0.72925,0.0331 -0.72925,0.26518 0,0.16568 0.0994,0.29832 0.46409,0.29832 0.39774,0 1.09382,0 1.52473,0.16567 0.69606,0.26519 0.96126,0.76237 0.9944,2.48602 l 0.29839,12.52946 h -0.13254 c -0.43087,-0.39779 -4.30906,-4.37538 -6.29785,-6.33103 -4.24282,-4.14334 -8.6182,-8.61815 -8.98278,-8.98276 -0.49723,-0.49721 -0.89499,-0.92811 -1.25958,-0.92811 -0.29839,0 -0.49722,0.39777 -0.49722,0.96124 l -0.26505,16.70599 c -0.0329,2.45284 -0.13274,3.21521 -0.89498,3.41408 -0.39779,0.0994 -0.92813,0.13274 -1.32587,0.13274 -0.26506,0 -0.46405,0.13274 -0.46405,0.29837 0,0.26506 0.26506,0.29838 0.66292,0.29838 1.49162,0 2.88378,-0.0994 3.14896,-0.0994 0.53036,0 1.88936,0.0994 3.77872,0.0994 0.39777,0 0.66295,-0.0663 0.66295,-0.29838 0,-0.16567 -0.16568,-0.29837 -0.49721,-0.29837 -0.46405,0 -1.02757,-0.0329 -1.52476,-0.19901 -0.56349,-0.19902 -0.9281,-0.86184 -0.99441,-3.04954 z"
       style="font-weight:bold;font-size:10.6422px;line-height:1.25;font-family:'Trajan Pro';-inkscape-font-specification:'Trajan Pro Bold';fill:#5f554c;stroke-width:2.486;fill-opacity:1"
       id="path722" /><path
       d="m 337.18396,109.39865 c 0,2.58544 0,4.80628 -0.13274,5.99954 -0.0994,0.82868 -0.26506,1.35904 -0.86181,1.4916 -0.26506,0.0663 -0.59665,0.0994 -1.02753,0.0994 -0.36463,0 -0.46405,0.16567 -0.46405,0.29837 0,0.19881 0.19901,0.2984 0.56348,0.2984 0.59663,0 1.32586,-0.0329 2.02196,-0.0663 0.69606,0 1.32589,-0.0333 1.65734,-0.0333 0.86179,0 1.95565,0.0333 3.38096,0.0663 1.42533,0.0663 3.18207,0.0994 5.36977,0.0994 1.09384,0 1.35902,0 1.55789,-0.72921 0.16568,-0.5635 0.39778,-2.48602 0.39778,-3.11581 0,-0.29837 -0.0329,-0.66292 -0.26506,-0.66292 -0.19901,0 -0.26506,0.13274 -0.33145,0.43088 -0.19901,1.16015 -0.53038,1.7568 -1.25961,2.08825 -0.76237,0.33147 -1.98879,0.36463 -2.75116,0.36463 -2.98322,0 -3.87819,-0.4309 -3.94446,-2.35344 -0.0329,-0.82864 0,-3.21521 0,-4.17648 v -2.25399 c 0,-0.16568 0.0329,-0.29838 0.16568,-0.29838 0.72923,0 4.0439,0.0663 4.57424,0.13274 1.09386,0.0994 1.45847,0.53036 1.62419,1.09386 0.0663,0.36461 0.0663,0.72921 0.0994,1.02753 0,0.13274 0.0663,0.23205 0.26506,0.23205 0.26506,0 0.29838,-0.39779 0.29838,-0.62979 0,-0.19901 0.0663,-1.32587 0.13274,-1.88938 0.16568,-1.42532 0.23205,-1.88937 0.23205,-2.0551 0,-0.16568 -0.0994,-0.29832 -0.23205,-0.29832 -0.13274,0 -0.23205,0.16568 -0.46407,0.36463 -0.26506,0.29831 -0.69606,0.3646 -1.39216,0.43089 -0.66292,0.0663 -4.44165,0.0663 -5.10461,0.0663 -0.16567,0 -0.19881,-0.13254 -0.19881,-0.29833 v -6.96082 c 0,-0.16568 0.0663,-0.26518 0.19881,-0.26518 0.59665,0 4.07704,0.0663 4.57425,0.13254 1.45845,0.13254 1.69051,0.53034 1.92252,1.02755 0.16567,0.33147 0.19901,0.82866 0.19901,1.02755 0,0.23202 0.0329,0.3646 0.23205,0.3646 0.23204,0 0.29839,-0.33147 0.33147,-0.46405 0.0663,-0.33147 0.13274,-1.55789 0.16567,-1.85621 0.0663,-1.29273 0.23203,-1.6242 0.23203,-1.82307 0,-0.13254 -0.0329,-0.26518 -0.19901,-0.26518 -0.13274,0 -0.2984,0.0994 -0.46406,0.13254 -0.23204,0.0331 -0.69609,0.13254 -1.22644,0.16568 -0.56349,0.0331 -7.02712,0 -7.95523,0 -0.82868,0 -2.68488,-0.0663 -4.20964,-0.0663 -0.4309,0 -0.66294,0.0663 -0.66294,0.26518 0,0.19881 0.19901,0.29832 0.49722,0.29832 0.4309,0 0.92811,0.0331 1.16011,0.0994 0.92815,0.26518 1.19329,0.56349 1.2596,1.52475 0.0329,0.89497 0.0329,1.6905 0.0329,5.96643 z"
       style="font-weight:bold;font-size:10.6422px;line-height:1.25;font-family:'Trajan Pro';-inkscape-font-specification:'Trajan Pro Bold';fill:#5f554c;stroke-width:2.486;fill-opacity:1"
       id="path719" /><path
       d="m 366.75091,117.9505 c 1.88936,0 4.11019,-0.16568 5.27034,-0.62979 0.49719,-0.19901 0.62979,-0.33145 0.76237,-0.82866 0.29838,-0.96128 0.62979,-3.41412 0.62979,-3.74559 0,-0.23203 -0.13274,-0.49719 -0.33147,-0.49719 -0.23203,0 -0.29838,0.13274 -0.36463,0.56348 -0.0994,0.53036 -0.49719,1.32586 -0.99437,1.88938 -1.16015,1.29269 -2.58549,1.4916 -5.17093,1.4916 -3.91132,0 -9.0822,-3.18209 -9.0822,-9.87775 0,-2.75117 0.53032,-5.46921 2.68488,-7.32542 1.32589,-1.127 2.95005,-1.59105 5.50236,-1.59105 2.68488,0 4.64055,0.69608 5.63497,1.65734 0.72923,0.72923 1.09384,1.72363 1.12697,2.61859 0,0.36461 0.0663,0.59664 0.2984,0.59664 0.26506,0 0.36463,-0.29832 0.39778,-0.69608 0.0329,-0.5635 0.0329,-2.12139 0.0994,-3.04949 0.0663,-0.99442 0.13274,-1.32589 0.13274,-1.55792 0,-0.16567 -0.0994,-0.29831 -0.4309,-0.33145 -0.86179,-0.0994 -1.82307,-0.29833 -2.91691,-0.46407 -1.32589,-0.16567 -2.41971,-0.29831 -4.24278,-0.29831 -4.34224,0 -7.12657,1.12699 -9.24794,2.9832 -2.78433,2.48601 -3.41412,5.80069 -3.41412,7.7232 0,2.71805 0.76237,5.90012 3.64613,8.31984 2.65177,2.22084 6.03271,3.0495 10.01035,3.0495 z"
       style="font-weight:bold;font-size:10.6422px;line-height:1.25;font-family:'Trajan Pro';-inkscape-font-specification:'Trajan Pro Bold';fill:#5f554c;stroke-width:2.486;fill-opacity:1"
       id="path716" /><path
       d="m 383.35743,109.39865 c 0,2.58544 0,4.80628 -0.13274,5.99954 -0.0994,0.82868 -0.26506,1.35904 -0.86182,1.4916 -0.23204,0.0663 -0.59665,0.0994 -1.02757,0.0994 -0.3646,0 -0.46405,0.16567 -0.46405,0.29837 0,0.19881 0.19901,0.2984 0.56352,0.2984 1.16011,0 3.14894,-0.0994 3.81186,-0.0994 0.82866,0 2.78431,0.0994 4.70683,0.0994 0.33147,0 0.5635,-0.0994 0.5635,-0.2984 0,-0.13274 -0.13275,-0.29837 -0.46406,-0.29837 -0.43089,0 -1.09382,-0.0329 -1.4916,-0.0994 -0.86181,-0.13274 -1.02755,-0.66292 -1.12701,-1.45842 -0.13274,-1.22644 -0.16568,-3.44728 -0.16568,-6.03272 V 97.99614 l 3.67932,0.0663 c 2.61858,0.0331 3.38095,0.89497 3.44726,1.62418 l 0.0329,0.29834 c 0.0329,0.4309 0.0994,0.56348 0.33147,0.56348 0.16568,0 0.23205,-0.16568 0.26506,-0.46405 0,-0.72922 0.0663,-2.81747 0.0663,-3.4141 0,-0.43092 -0.0329,-0.59666 -0.23202,-0.59666 -0.0994,0 -0.33147,0.0663 -0.79557,0.13255 -0.43087,0.0663 -1.06068,0.13254 -1.98878,0.13254 h -11.83339 c -0.96128,0 -2.0551,-0.0331 -2.91693,-0.13254 -0.72921,-0.0994 -1.02753,-0.33148 -1.25957,-0.33148 -0.16568,0 -0.26504,0.16568 -0.33146,0.53035 -0.0663,0.23204 -0.62978,2.95006 -0.62978,3.41411 0,0.29832 0.0663,0.46406 0.26506,0.46406 0.19901,0 0.26506,-0.13254 0.33149,-0.36461 0.0663,-0.19881 0.19901,-0.5635 0.49719,-0.96126 0.43091,-0.62979 1.12697,-0.82868 2.81748,-0.86181 l 4.34221,-0.0994 z"
       style="font-weight:bold;font-size:10.6422px;line-height:1.25;font-family:'Trajan Pro';-inkscape-font-specification:'Trajan Pro Bold';fill:#5f554c;stroke-width:2.486;fill-opacity:1"
       id="path713" /><path
       d="m 400.46116,109.39865 c 0,2.71804 0,4.97201 -0.13274,6.13212 -0.0994,0.8287 -0.26504,1.22646 -0.86182,1.35902 -0.26506,0.0663 -0.59665,0.0994 -1.02757,0.0994 -0.36458,0 -0.46405,0.16567 -0.46405,0.29837 0,0.19881 0.19901,0.2984 0.56352,0.2984 1.16011,0 3.14894,-0.0994 3.81186,-0.0994 0.79552,0 2.78431,0.0994 4.70683,0.0994 0.33147,0 0.56352,-0.0994 0.56352,-0.2984 0,-0.13274 -0.13275,-0.29837 -0.46406,-0.29837 -0.43091,0 -1.09384,-0.0329 -1.49162,-0.0994 -0.86181,-0.13274 -1.06068,-0.56348 -1.16015,-1.32584 -0.13274,-1.19329 -0.13274,-3.44726 -0.13274,-6.1653 v -4.97203 c 0,-4.27593 0,-5.07146 0.0663,-5.9664 0.0663,-0.99442 0.29838,-1.39218 1.09384,-1.52476 0.33145,-0.0663 0.5635,-0.0994 0.86181,-0.0994 0.2984,0 0.46406,-0.0663 0.46406,-0.33145 0,-0.16568 -0.23205,-0.23205 -0.59664,-0.23205 -1.12701,0 -3.01635,0.0663 -3.74559,0.0663 -0.82865,0 -2.81748,-0.0663 -3.91132,-0.0663 -0.46405,0 -0.6961,0.0663 -0.6961,0.23205 0,0.26518 0.16568,0.33145 0.46409,0.33145 0.36461,0 0.7292,0.0331 1.06069,0.13254 0.62978,0.19881 0.9281,0.53034 0.99439,1.4916 0.0329,0.89497 0.0329,1.6905 0.0329,5.96643 z"
       style="font-weight:bold;font-size:10.6422px;line-height:1.25;font-family:'Trajan Pro';-inkscape-font-specification:'Trajan Pro Bold';fill:#5f554c;stroke-width:2.486;fill-opacity:1"
       id="path710" /><path
       d="m 422.37114,117.9505 c 7.52434,0 12.23119,-5.07144 12.23119,-11.53507 0,-6.46361 -4.57427,-10.54067 -11.93287,-10.54067 -8.85016,0 -12.23115,6.2316 -12.23115,11.03788 0,5.00514 3.44728,11.03786 11.93283,11.03786 z m 1.19329,-1.52476 c -5.50234,0 -8.81701,-4.57423 -8.81701,-10.37492 0,-6.96084 3.81186,-8.68446 7.06024,-8.68446 4.70685,0 8.45244,3.84503 8.45244,10.07664 0,8.0215 -4.64056,8.98274 -6.69567,8.98274 z"
       style="font-weight:bold;font-size:10.6422px;line-height:1.25;font-family:'Trajan Pro';-inkscape-font-specification:'Trajan Pro Bold';fill:#5f554c;stroke-width:2.486;fill-opacity:1"
       id="path707" /><path
       d="m 441.52995,102.23894 h 0.0994 c 0.5635,0.49719 3.64615,3.91131 6.82822,6.9608 3.04951,2.95009 6.69568,6.4305 8.51875,8.12097 0.29838,0.29837 0.69606,0.59665 1.19329,0.59665 0.23202,0 0.46405,-0.26506 0.46405,-0.89497 l 0.33145,-17.76667 c 0.0329,-1.59103 0.26506,-2.08823 1.0607,-2.32026 0.36459,-0.0994 0.59664,-0.0994 0.89495,-0.0994 0.33147,0 0.49721,-0.13254 0.49721,-0.29832 0,-0.232 -0.26506,-0.26518 -0.66292,-0.26518 -1.42533,0 -2.51917,0.0663 -2.85062,0.0663 -0.62979,0 -2.18772,-0.0663 -3.71246,-0.0663 -0.43092,0 -0.72923,0.0331 -0.72923,0.26518 0,0.16568 0.0994,0.29832 0.46405,0.29832 0.39776,0 1.09386,0 1.52478,0.16567 0.69605,0.26519 0.96123,0.76237 0.99439,2.48602 l 0.29838,12.52946 h -0.13275 c -0.43091,-0.39779 -4.30906,-4.37538 -6.29789,-6.33103 -4.24278,-4.14334 -8.61816,-8.61815 -8.98276,-8.98276 -0.49721,-0.49721 -0.89495,-0.92811 -1.2596,-0.92811 -0.29837,0 -0.49718,0.39777 -0.49718,0.96124 l -0.26507,16.70599 c -0.0329,2.45284 -0.13274,3.21521 -0.89496,3.41408 -0.39775,0.0994 -0.92811,0.13274 -1.32585,0.13274 -0.26504,0 -0.46405,0.13274 -0.46405,0.29837 0,0.26506 0.26506,0.29838 0.66292,0.29838 1.49162,0 2.88378,-0.0994 3.14896,-0.0994 0.53032,0 1.88934,0.0994 3.77872,0.0994 0.39777,0 0.66293,-0.0663 0.66293,-0.29838 0,-0.16567 -0.16568,-0.29837 -0.49719,-0.29837 -0.46405,0 -1.02757,-0.0329 -1.52476,-0.19901 -0.56349,-0.19902 -0.9281,-0.86184 -0.99441,-3.04954 z"
       style="font-weight:bold;font-size:10.6422px;line-height:1.25;font-family:'Trajan Pro';-inkscape-font-specification:'Trajan Pro Bold';fill:#5f554c;stroke-width:2.486;fill-opacity:1"
       id="path704" /><path
       style="color:#000000;fill:#287bb5;fill-opacity:1;stroke-width:2.14406;stroke-linecap:round;stroke-linejoin:bevel;-inkscape-stroke:none"
       d="M 90.711073,14.35527 C 82.598009,14.17172 73.969207,15.72598 65.644058,19.07053 48.993755,25.75966 33.519824,39.9515 26.632309,62.36202 a 3.9518469,3.9518469 0 0 0 2.617254,4.93717 3.9518469,3.9518469 0 0 0 4.93719,-2.61725 c 6.19306,-20.15091 19.740415,-32.38738 34.40538,-38.2789 14.664961,-5.89155 30.408787,-5.09772 40.146587,0.51087 10.10667,5.82135 14.938,14.52345 16.29817,23.0821 1.35991,8.55707 -1.07516,16.85905 -5.01676,21.1181 -4.23239,4.57087 -9.19791,5.97771 -13.73535,5.67421 -4.53744,-0.30352 -8.461003,-2.60418 -9.966503,-4.80736 -1.745637,-2.55478 -1.829408,-4.9553 -1.206031,-7.0352 0.248788,-0.83013 0.697255,-1.47907 1.139028,-2.0896 -0.37378,1.74473 0.01486,3.22826 0.891962,4.49328 0.964233,1.39061 2.726455,2.52411 4.723624,2.67171 h 0.004 c 2.4224,0.17873 4.2923,-0.85456 5.74121,-2.44137 1.44891,-1.58683 2.36358,-4.04875 1.97236,-6.62481 -0.45477,-2.99722 -2.35022,-5.22557 -4.90787,-6.67504 -2.55765,-1.44946 -6.068375,-1.93972 -9.463992,-0.60303 -3.791783,1.49276 -6.434069,4.86985 -7.671697,8.99918 -1.237625,4.12934 -0.830548,9.25387 2.248748,13.76046 3.31971,4.85815 9.295123,7.79075 15.967341,8.23705 6.67222,0.44632 14.22435,-1.88141 20.06283,-8.18678 6.12762,-6.61788 8.71859,-17.05867 7.02261,-27.73033 C 131.14664,38.08479 124.83855,27.0684 112.68347,20.06717 106.42131,16.46041 98.824163,14.5387 90.711101,14.35527 Z m 7.395314,46.67928 c 0.278899,-0.10985 0.385915,0.0721 0.623951,0.0293 a 3.9518469,3.9518469 0 0 0 -1.846732,0.98407 c 0.445936,-0.45256 0.910269,-0.89035 1.222781,-1.01339 z"
       id="path701" /><path
       style="color:#000000;fill:#5f554c;stroke-width:0.281938;stroke-linecap:round;stroke-linejoin:round;-inkscape-stroke:none;fill-opacity:1"
       d="m 495.00813,14.34335 c -1.46176,-0.033 -3.01481,0.2477 -4.51321,0.84967 -2.9968,1.20394 -5.78308,3.76064 -7.02147,7.7902 a 0.78325812,0.78325812 0 0 0 0.51872,0.97852 0.78325812,0.78325812 0 0 0 0.97852,-0.51872 c 1.10076,-3.5817 3.50463,-5.75095 6.10793,-6.7968 2.60331,-1.04586 5.3985,-0.90044 7.11288,0.087 1.78754,1.02958 2.63721,2.56316 2.87721,4.07323 0.23998,1.51007 -0.19379,2.97389 -0.87776,3.71255 -0.74131,0.80061 -1.60463,1.04299 -2.39537,0.99009 -0.79075,-0.0529 -1.47248,-0.45827 -1.72412,-0.82654 -0.29926,-0.43796 -0.31147,-0.84064 -0.20595,-1.19273 0.008,-0.0273 0.0274,-0.0423 0.0374,-0.0683 0.0233,0.18962 0.0833,0.3646 0.19053,0.51927 0.18424,0.26571 0.52201,0.48294 0.90198,0.51101 0.4643,0.0343 0.81559,-0.16238 1.08865,-0.46145 0.27307,-0.29906 0.4456,-0.7645 0.37225,-1.2478 -0.086,-0.56676 -0.43979,-0.97947 -0.9152,-1.24889 -0.47541,-0.26943 -1.13027,-0.35922 -1.75881,-0.11179 -0.70709,0.27835 -1.19012,0.89974 -1.4174,1.65804 -0.22727,0.7583 -0.15059,1.70162 0.413,2.52643 0.61122,0.89451 1.69913,1.42486 2.91299,1.50606 1.21387,0.0812 2.58959,-0.3446 3.64923,-1.48899 1.117,-1.20633 1.58243,-3.09424 1.27588,-5.02312 -0.30655,-1.92888 -1.44908,-3.92104 -3.64262,-5.18447 -1.13334,-0.65277 -2.50354,-0.99949 -3.96531,-1.03249 z"
       id="path1038" /><path
       id="path626"
       style="color:#000000;fill:#5f554c;stroke-width:0.281936;stroke-linecap:round;stroke-linejoin:round;fill-opacity:1"
       d="m 484.15273,29.4854 a 0.7141586,0.71416869 0 0 0 -0.38216,1.31724 l 7.96973,5.0533 -7.96973,5.05346 a 0.7141586,0.71416869 0 0 0 0.38216,1.31723 h 8.55935 0.72249 8.55935 a 0.7141586,0.71416869 0 0 0 0.38274,-1.31723 l -7.97017,-5.05346 7.97017,-5.0533 a 0.7141586,0.71416869 0 0 0 -0.38274,-1.31724 h -8.55935 -0.72249 z m 2.4593,1.4284 h 6.10005 0.72249 6.10019 l -6.46136,4.09696 z m 6.46137,5.78747 6.46136,4.09754 h -6.10019 -0.72249 -6.10005 z" /><path
       id="path651"
       style="color:#000000;fill:#5f554c;stroke-width:0.282372;stroke-linecap:round;stroke-linejoin:round;fill-opacity:1"
       d="m 502.05062,90.06663 a 0.7128647,0.71543206 0 0 0 -0.43567,0.10833 l -8.54112,5.41403 -8.54141,-5.41403 a 0.7128647,0.71543206 0 0 0 -0.7245,-0.0215 0.7128647,0.71543206 0 0 0 -0.36896,0.62654 v 5.42616 0.458 5.4266 a 0.7128647,0.71543206 0 0 0 1.09346,0.60446 l 8.54141,-5.41402 8.54112,5.41402 a 0.7128647,0.71543206 0 0 0 1.09332,-0.60446 v -5.42661 -0.45799 -5.42617 a 0.7128647,0.71543206 0 0 0 -0.36823,-0.62654 0.7128647,0.71543206 0 0 0 -0.28942,-0.0868 z m -17.18624,2.01119 6.87478,4.35757 -6.87478,4.35757 v -4.12879 -0.45799 z m 16.41862,0 v 4.12836 0.45799 4.12879 l -6.87435,-4.35757 z" /><path
       style="color:#000000;fill:#5f554c;stroke-width:0.273021;stroke-linecap:round;stroke-linejoin:round;fill-opacity:1"
       d="m 486.52344,44.63022 c -0.23022,-0.002 -0.46389,0.0506 -0.66685,0.16809 -0.40592,0.23492 -0.68521,0.6214 -0.94313,1.11783 -0.51584,0.99285 -0.961,2.52652 -1.45724,4.88405 a 0.69436227,0.75150583 0 0 0 0.52283,0.89925 0.69436227,0.75150583 0 0 0 0.83087,-0.56585 c 0.48391,-2.29893 0.94132,-3.76299 1.31423,-4.48074 0.18646,-0.35887 0.34792,-0.50633 0.3875,-0.52923 0.0396,-0.0229 -0.0383,-0.0293 0.0446,0.015 0.16578,0.0885 0.68079,0.69927 1.2071,1.64484 0.52632,0.94557 1.12893,2.19729 1.82578,3.54875 a 0.69436227,0.75150583 0 0 0 0.94466,0.28958 0.69436227,0.75150583 0 0 0 0.26808,-1.02241 c -0.6847,-1.3279 -1.2857,-2.57973 -1.84884,-3.59147 -0.56315,-1.01174 -1.02331,-1.81187 -1.78272,-2.21734 -0.18986,-0.10137 -0.41664,-0.15825 -0.64687,-0.16033 z"
       id="path636" /><path
       style="color:#000000;fill:#5f554c;stroke-width:0.273021;stroke-linecap:round;stroke-linejoin:round;fill-opacity:1"
       d="m 490.38207,50.2421 a 0.69443172,0.75158098 0 0 0 -0.78833,1.09842 c 1.63464,3.07406 3.19239,4.79473 4.73974,5.57027 1.54735,0.77554 3.05739,0.49158 4.22921,-0.25741 1.17183,-0.74899 2.07223,-1.90767 2.74892,-2.96016 0.67668,-1.05249 1.14325,-2.0449 1.30449,-2.34882 a 0.69436227,0.75150583 0 0 0 -0.25628,-1.02574 0.69436227,0.75150583 0 0 0 -0.94775,0.27738 c -0.22109,0.41672 -0.62592,1.28322 -1.24042,2.23898 -0.61449,0.95576 -1.42523,1.95524 -2.31528,2.52413 -0.89004,0.56888 -1.79253,0.76297 -2.93959,0.18806 -1.13915,-0.57095 -2.54669,-2.02042 -4.08826,-4.90291 a 0.69436227,0.75150583 0 0 0 -0.43107,-0.39776 z"
       id="path633" /><path
       id="path641"
       style="color:#000000;fill:#5f554c;stroke-width:0.281938;stroke-linecap:round;stroke-linejoin:round;fill-opacity:1"
       d="m 488.22254,59.7901 a 0.7459619,0.7459619 0 0 0 -0.74611,0.74553 v 6.40259 h -3.2445 a 0.7459619,0.7459619 0 0 0 -0.74611,0.74552 0.7459619,0.7459619 0 0 0 0.74611,0.74626 h 3.24275 l -0.008,3.32317 a 0.7459619,0.7459619 0 0 0 0.74392,0.74785 0.7459619,0.7459619 0 0 0 0.74771,-0.7445 l 0.008,-3.32652 h 3.34531 a 0.7459619,0.7459619 0 0 0 0.74553,-0.74626 0.7459619,0.7459619 0 0 0 -0.74553,-0.74552 h -3.34356 v -6.40259 a 0.7459619,0.7459619 0 0 0 -0.74567,-0.74553 z m 6.6883,7.14812 a 0.7459619,0.7459619 0 0 0 -0.74611,0.74552 0.7459619,0.7459619 0 0 0 0.74611,0.74626 h 7.00504 a 0.7459619,0.7459619 0 0 0 0.74553,-0.74626 0.7459619,0.7459619 0 0 0 -0.74553,-0.74552 z" /><path
       style="color:#000000;fill:#5f554c;stroke-width:0.282637;stroke-linecap:round;stroke-linejoin:round;fill-opacity:1"
       d="m 495.3262,74.92025 a 0.74708266,0.74869876 0 0 0 -0.66448,0.46752 l -3.91682,9.73174 -2.02321,-3.92419 a 0.74708266,0.74869876 0 0 0 -0.66392,-0.40508 h -3.87216 a 0.74700795,0.74862391 0 0 0 -0.74665,0.74881 0.74700795,0.74862391 0 0 0 0.74665,0.74825 h 3.41722 l 2.56196,4.96866 a 0.74708266,0.74869876 0 0 0 1.35652,-0.0635 l 3.90194,-9.69305 2.1175,4.29998 a 0.74708266,0.74869876 0 0 0 0.66227,0.41779 l 3.75085,0.037 a 0.74700795,0.74862391 0 0 0 0.75436,-0.74107 0.74700795,0.74862391 0 0 0 -0.73947,-0.756 l -3.2915,-0.0326 -2.65294,-5.38755 a 0.74708266,0.74869876 0 0 0 -0.69812,-0.41668 z"
       id="path646" /><path
       id="path656"
       style="color:#000000;fill:#5f554c;stroke-width:0.283252;stroke-linecap:round;stroke-linejoin:round;paint-order:stroke markers fill;fill-opacity:1"
       d="m 501.56244,105.20943 a 0.74700829,0.75187573 0 0 0 -0.003,2.8e-4 l -4.38254,0.003 a 0.74700829,0.75187573 0 0 0 -0.74599,0.75202 0.74700829,0.75187573 0 0 0 0.74715,0.75159 l 0.20061,-1.5e-4 -4.53209,1.68423 c -0.48483,-0.61598 -1.23206,-1.0143 -2.06623,-1.0143 -1.45042,0 -2.64035,1.20294 -2.64035,2.66358 0,1.20043 0.80374,2.22628 1.89523,2.55373 l 0.005,1.64546 -5.85628,0.0117 a 0.74700829,0.75187573 0 0 0 -0.74555,0.7532 0.74700829,0.75187573 0 0 0 0.74832,0.75041 l 5.85818,-0.0113 0.005,1.44824 a 0.74700829,0.75187573 0 0 0 0.74934,0.74982 0.74700829,0.75187573 0 0 0 0.74453,-0.75422 l -0.005,-1.434 5.90763,-0.0113 a 0.74700829,0.75187573 0 0 0 0.7454,-0.75319 0.74700829,0.75187573 0 0 0 -0.74817,-0.75085 l -5.90968,0.0116 -0.005,-1.65677 c 1.08949,-0.32864 1.891,-1.35347 1.891,-2.55255 0,-0.0858 -0.005,-0.17056 -0.0125,-0.25435 l 7.802,-2.89941 0.005,3.97245 a 0.74700829,0.75187573 0 0 0 0.74774,0.75085 0.74700829,0.75187573 0 0 0 0.74613,-0.75261 l -0.006,-4.90525 a 0.74700829,0.75187573 0 0 0 0,-1.5e-4 0.74700829,0.75187573 0 0 0 0,-1.5e-4 0.74700829,0.75187573 0 0 0 0,-1.4e-4 0.74700829,0.75187573 0 0 0 0,-1.5e-4 0.74700829,0.75187573 0 0 0 -0.0255,-0.19399 0.74700829,0.75187573 0 0 0 0,-1.5e-4 0.74700829,0.75187573 0 0 0 -1.5e-4,-5.6e-4 0.74700829,0.75187573 0 0 0 -0.008,-0.0248 0.74700829,0.75187573 0 0 0 -0.0232,-0.0681 0.74700829,0.75187573 0 0 0 -0.043,-0.0877 0.74700829,0.75187573 0 0 0 -2.8e-4,-5.6e-4 0.74700829,0.75187573 0 0 0 -0.054,-0.0812 0.74700829,0.75187573 0 0 0 -2.8e-4,-5.6e-4 0.74700829,0.75187573 0 0 0 -0.13758,-0.13834 0.74700829,0.75187573 0 0 0 -5.7e-4,-2.8e-4 0.74700829,0.75187573 0 0 0 -0.0808,-0.0542 0.74700829,0.75187573 0 0 0 -5.7e-4,-2.8e-4 0.74700829,0.75187573 0 0 0 -0.1796,-0.0747 0.74700829,0.75187573 0 0 0 -5.6e-4,-1.5e-4 0.74700829,0.75187573 0 0 0 -0.0194,-0.004 0.74700829,0.75187573 0 0 0 -0.0765,-0.0152 0.74700829,0.75187573 0 0 0 -0.0975,-0.006 l -0.38984,2.9e-4 a 0.74700829,0.75187573 0 0 0 -0.003,-2.9e-4 z m -10.78157,3.68038 c 0.47034,0 0.86754,0.27465 1.04552,0.67815 a 0.74700829,0.75187573 0 0 0 0.003,0.0116 0.74700829,0.75187573 0 0 0 0.0153,0.0328 c 0.0527,0.13425 0.0819,0.28144 0.0819,0.43688 0,0.65054 -0.50549,1.15939 -1.1459,1.15939 -8.5e-4,0 -0.002,0 -0.003,0 -0.63909,-0.001 -1.14313,-0.50979 -1.14313,-1.15939 0,-0.65055 0.50549,-1.15939 1.14591,-1.15939 z" /></g></svg>
