<?xml version="1.0" encoding="UTF-8" standalone="no"?>
<!-- Created with Inkscape (http://www.inkscape.org/) -->

<svg
   width="600"
   height="200"
   viewBox="0 0 158.74999 52.916665"
   version="1.1"
   id="svg5"
   inkscape:version="1.2.2 (b0a8486541, 2022-12-01)"
   sodipodi:docname="main-logo.svg"
   xmlns:inkscape="http://www.inkscape.org/namespaces/inkscape"
   xmlns:sodipodi="http://sodipodi.sourceforge.net/DTD/sodipodi-0.dtd"
   xmlns="http://www.w3.org/2000/svg"
   xmlns:svg="http://www.w3.org/2000/svg">
  <sodipodi:namedview
     id="namedview7"
     pagecolor="#ffffff"
     bordercolor="#000000"
     borderopacity="0.25"
     inkscape:showpageshadow="false"
     inkscape:pageopacity="0.0"
     inkscape:pagecheckerboard="0"
     inkscape:deskcolor="#d1d1d1"
     inkscape:document-units="px"
     showgrid="false"
     inkscape:zoom="1.6091667"
     inkscape:cx="230.2434"
     inkscape:cy="186.4319"
     inkscape:window-width="2528"
     inkscape:window-height="1404"
     inkscape:window-x="2592"
     inkscape:window-y="0"
     inkscape:window-maximized="1"
     inkscape:current-layer="layer1" />
  <defs
     id="defs2" />
  <g
     inkscape:label="Livello 1"
     inkscape:groupmode="layer"
     id="layer1">
    <path
       d="m 66.01846,41.215566 -1.734709,-7.690543 h -2.110562 l -1.329944,7.690543 h -4.163301 l 3.642888,-21.047802 6.3606,0.01446 q 2.833358,0.07228 4.322316,1.734709 1.503415,1.662429 1.27212,4.495787 -0.361397,4.307861 -3.932007,5.999202 l 2.125019,8.572353 v 0.231295 z m -2.139474,-17.506105 -1.098649,6.273864 2.168386,0.02891 q 1.416679,-0.01446 2.197298,-0.968546 0.780619,-0.95409 0.95409,-2.284033 0.130103,-1.011914 -0.115647,-1.98046 -0.245751,-0.983001 -1.474503,-1.055281 z"
       style="font-style:italic;font-weight:bold;font-size:29.6057px;font-family:'Roboto Condensed';-inkscape-font-specification:'Roboto Condensed,  Bold Italic';fill:#5f554c;stroke-width:11.4352"
       id="path2504" />
    <path
       d="M 71.179217,41.215566 81.211618,20.167764 h 3.801903 L 87.7746,41.215566 h -4.278949 l -0.361398,-4.307861 h -5.594436 l -1.8359,4.307861 z m 7.87847,-7.849558 h 3.787448 l -0.592692,-7.473705 z"
       style="font-style:italic;font-weight:bold;font-size:29.6057px;font-family:'Roboto Condensed';-inkscape-font-specification:'Roboto Condensed,  Bold Italic';fill:#5f554c;stroke-width:11.4352"
       id="path2501" />
    <path
       d="m 89.726149,41.215566 3.642888,-21.047802 h 11.723743 l -0.6216,3.541697 h -7.545993 l -0.86735,4.972833 h 6.418423 l -0.60714,3.42605 h -6.403973 l -0.96855,5.57998 h 7.589353 l -0.6216,3.527242 z"
       style="font-style:italic;font-weight:bold;font-size:29.6057px;font-family:'Roboto Condensed';-inkscape-font-specification:'Roboto Condensed,  Bold Italic';fill:#5f554c;stroke-width:11.4352"
       id="path2498" />
    <path
       id="path2495"
       style="font-style:italic;font-weight:bold;font-size:29.6057px;font-family:'Roboto Condensed';-inkscape-font-specification:'Roboto Condensed,  Bold Italic';fill:#5f554c;stroke-width:11.4352"
       d="m 113.90518,19.875278 c -1.67317,0.01186 -3.08772,0.451429 -4.24419,1.318782 -2.21658,1.65761 -3.60945,4.375184 -4.17804,8.152991 l -0.44804,2.978112 c -0.1831,1.464864 -0.12512,2.895875 0.17364,4.293278 0.30839,1.387766 0.92967,2.539546 1.86448,3.455086 0.56278,0.551174 1.26452,0.940636 2.10323,1.170471 v 6.196521 h 4.2261 v -6.356718 h -0.002 c 0.72479,-0.242622 1.43422,-0.602818 2.27377,-1.11156 1.29139,-0.91554 2.23591,-2.038328 2.83341,-3.368269 0.60715,-1.33958 1.02599,-2.765758 1.25729,-4.278809 l 0.50643,-3.252514 c 0.19275,-1.474502 0.13476,-2.910344 -0.17363,-4.307747 -0.30839,-1.397403 -0.93502,-2.554016 -1.87947,-3.469556 -0.94445,-0.915538 -2.26968,-1.387541 -3.97547,-1.416451 -0.11384,-0.003 -0.22642,-0.0044 -0.33796,-0.0036 z m -0.15245,3.539835 c 0.0615,4.9e-4 0.12382,0.0022 0.18707,0.0052 0.92518,0.03855 1.54697,0.38543 1.865,1.040763 0.32766,0.655335 0.4818,1.411913 0.4625,2.269629 -0.0193,0.867354 -0.0676,1.628765 -0.14469,2.284098 l -0.47697,3.310392 c -0.11565,0.799894 -0.31325,1.647766 -0.59273,2.544031 -0.26985,0.896266 -0.69405,1.652844 -1.27228,2.269629 -0.57822,0.607147 -1.37778,0.886898 -2.39933,0.838708 -0.93482,-0.03855 -1.56145,-0.390261 -1.87948,-1.055232 -0.31803,-0.664972 -0.4673,-1.431215 -0.44803,-2.298568 0.01,-0.867354 0.0579,-1.628764 0.14469,-2.284098 l 0.46251,-3.295923 c 0.11564,-0.819167 0.31324,-1.671872 0.59273,-2.5585 0.28912,-0.896266 0.72246,-1.64318 1.30069,-2.24069 0.54209,-0.560166 1.27506,-0.83675 2.19832,-0.829407 z" />
    <path
       d="m 133.96124,20.167764 h 4.1633 l -2.45751,14.426996 q -0.44813,3.209211 -2.41413,5.102935 -1.95155,1.879268 -5.27641,1.821445 -3.13693,-0.05782 -4.64035,-1.951548 -1.48896,-1.893724 -1.14201,-4.958376 l 2.4575,-14.441452 h 4.14885 l -2.41414,14.455908 q -0.14456,1.315487 0.1301,2.312945 0.27467,0.983002 1.80699,1.040825 1.5757,0.07228 2.25512,-0.838442 0.69389,-0.925178 0.93964,-2.428593 z"
       style="font-style:italic;font-weight:bold;font-size:29.6057px;font-family:'Roboto Condensed';-inkscape-font-specification:'Roboto Condensed,  Bold Italic';fill:#5f554c;stroke-width:11.4352"
       id="path2492" />
    <path
       d="m 137.56076,41.215566 3.64289,-21.047802 h 11.72374 l -0.62161,3.541697 h -7.54598 l -0.86736,4.972833 h 6.41843 l -0.60715,3.42605 h -6.40397 l -0.96854,5.57998 h 7.58935 l -0.62161,3.527242 z"
       style="font-style:italic;font-weight:bold;font-size:29.6057px;font-family:'Roboto Condensed';-inkscape-font-specification:'Roboto Condensed,  Bold Italic';fill:#5f554c;stroke-width:11.4352"
       id="path2489" />
    <path
       id="path2585"
       style="fill:#5f554c;fill-opacity:1;stroke:none;stroke-width:1.63512;stroke-dasharray:none;stroke-opacity:1"
       d="M 26.458332 0 A 26.458332 26.458332 0 0 0 0 26.458332 A 26.458332 26.458332 0 0 0 26.458332 52.916664 A 26.458332 26.458332 0 0 0 48.037892 41.74422 L 41.941624 41.74422 C 43.192141 34.522311 44.441182 27.300343 45.691266 20.07836 L 45.767747 19.638594 L 52.021628 19.638594 A 26.458332 26.458332 0 0 0 26.458332 0 z M 50.21502 24.238313 C 49.987156 25.542999 49.759206 26.847599 49.531341 28.152285 L 52.853102 28.152285 A 26.458332 26.458332 0 0 0 52.916664 26.458332 A 26.458332 26.458332 0 0 0 52.82158 24.238313 L 50.21502 24.238313 z M 48.755678 32.636766 C 48.49396 34.143926 48.232432 35.651294 47.970713 37.158454 L 50.6367 37.158454 A 26.458332 26.458332 0 0 0 52.175107 32.636766 L 48.755678 32.636766 z " />
    <path
       d="m 29.756521,32.002891 -5.365694,-0.02556 -2.274033,13.082077 h -7.358669 l 6.438834,-37.2021556 11.957836,0.025558 q 5.161287,0.1533136 7.767483,3.6537816 2.631747,3.474928 2.222931,8.431808 -0.485467,5.544552 -4.190353,8.815071 -3.704885,3.244969 -9.198335,3.219418 z m -2.274033,-17.885652 -2.018522,11.600122 4.67582,0.0511 q 2.529542,-0.0511 3.909292,-1.711913 1.37975,-1.660811 1.686362,-4.037046 0.229958,-1.763015 -0.229958,-3.730437 -0.459918,-1.992971 -2.682849,-2.120727 z"
       style="font-style:italic;font-weight:bold;font-size:29.6057px;font-family:'Roboto Condensed';-inkscape-font-specification:'Roboto Condensed,  Bold Italic';fill:#ffffff;stroke-width:20.2118"
       id="path2510" />
    <path
       d="m 42.570977,41.215568 3.642889,-21.047802 h 11.723741 l -0.621604,3.541697 h -7.545984 l -0.867355,4.972833 h 6.418424 l -0.607149,3.42605 h -6.403967 l -0.968546,5.57998 h 7.589352 l -0.621604,3.527242 z"
       style="font-style:italic;font-weight:bold;font-size:29.6057px;font-family:'Roboto Condensed';-inkscape-font-specification:'Roboto Condensed,  Bold Italic';fill:#5f554c;stroke-width:11.4352"
       id="path2761" />
    <path
       d="m 111.7886,16.952218 q 0.0165,-0.117823 -0.0475,-0.194304 -0.062,-0.07855 -0.28318,-0.190169 -0.21911,-0.111621 -0.38861,-0.248046 -0.1695,-0.138493 -0.15296,-0.405143 0.0165,-0.299723 0.24184,-0.47749 0.22531,-0.179834 0.5147,-0.173633 0.29972,0.0062 0.46922,0.19637 0.1695,0.188103 0.1571,0.483691 l -0.35347,-0.0021 q 0.006,-0.142626 -0.0641,-0.250113 -0.0703,-0.109554 -0.22944,-0.111621 -0.14883,0 -0.25632,0.08682 -0.10748,0.08682 -0.12815,0.235644 -0.0145,0.10542 0.0351,0.171566 0.0496,0.06615 0.26458,0.173633 0.21704,0.105419 0.40514,0.248046 0.1881,0.142627 0.17157,0.427881 -0.0186,0.318326 -0.25218,0.491959 -0.23151,0.173633 -0.53537,0.167432 -0.31213,-0.0062 -0.50229,-0.202572 -0.18811,-0.198437 -0.1757,-0.510563 l 0.35966,0.0021 q -0.006,0.169499 0.0724,0.28112 0.0786,0.111621 0.26252,0.113688 0.15089,0.0021 0.27285,-0.07648 0.12195,-0.07855 0.14262,-0.237711 z"
       style="font-style:italic;font-weight:normal;font-size:4.23333px;font-family:'Roboto Condensed';-inkscape-font-specification:'Roboto Condensed,  Italic';fill:#5f554c;stroke-width:1.63512"
       id="path3101" />
    <path
       d="m 113.30996,17.541328 q -0.10336,0.04134 -0.23358,0.03721 -0.24185,-0.0041 -0.30799,-0.200504 -0.0641,-0.19637 -0.0455,-0.392741 l 0.22738,-1.386994 h -0.33073 l 0.0517,-0.293522 h 0.32866 l 0.0951,-0.543635 h 0.3576 l -0.0951,0.543635 h 0.32866 l -0.0517,0.293522 h -0.32659 l -0.23564,1.393196 q -0.008,0.07855 0.004,0.167431 0.0124,0.08888 0.11782,0.08888 0.0475,0.0021 0.14676,-0.02067 z"
       style="font-style:italic;font-weight:normal;font-size:4.23333px;font-family:'Roboto Condensed';-inkscape-font-specification:'Roboto Condensed,  Italic';fill:#5f554c;stroke-width:1.63512"
       id="path3098" />
    <path
       d="m 114.85818,17.541328 q -0.0124,-0.06201 -0.0103,-0.121956 l 0.008,-0.119889 q -0.23977,0.285254 -0.51263,0.285254 -0.28318,-0.0021 -0.42788,-0.183968 -0.14262,-0.181901 -0.12609,-0.452686 0.0248,-0.390673 0.31213,-0.576708 0.28939,-0.188102 0.64905,-0.188102 h 0.26459 l 0.0351,-0.239779 q 0.0165,-0.16123 -0.0434,-0.264583 -0.0599,-0.103352 -0.23564,-0.103352 -0.1633,-0.0021 -0.27079,0.09715 -0.10749,0.09715 -0.13849,0.250114 l -0.35347,0.0021 q 0.0289,-0.299723 0.26872,-0.483691 0.23978,-0.186035 0.53123,-0.179834 0.31626,0.0041 0.47129,0.192236 0.1571,0.186035 0.12609,0.496094 l -0.1819,1.103807 q -0.0186,0.117822 -0.0145,0.227376 l 0.0103,0.225309 -0.004,0.03514 z m -0.44028,-0.28732 q 0.26665,0.0041 0.46095,-0.262516 l 0.093,-0.537435 -0.1633,-0.0021 q -0.22117,0 -0.42168,0.101286 -0.19843,0.101286 -0.22737,0.349332 -0.0186,0.150895 0.0351,0.252181 0.0558,0.09922 0.22324,0.09922 z"
       style="font-style:italic;font-weight:normal;font-size:4.23333px;font-family:'Roboto Condensed';-inkscape-font-specification:'Roboto Condensed,  Italic';fill:#5f554c;stroke-width:1.63512"
       id="path3095" />
    <path
       d="m 116.49322,17.541328 q -0.10335,0.04134 -0.23357,0.03721 -0.24185,-0.0041 -0.308,-0.200504 -0.0641,-0.19637 -0.0455,-0.392741 l 0.22737,-1.386994 h -0.33072 l 0.0517,-0.293522 h 0.32866 l 0.0951,-0.543635 h 0.3576 l -0.0951,0.543635 h 0.32867 l -0.0517,0.293522 h -0.32659 l -0.23565,1.393196 q -0.008,0.07855 0.004,0.167431 0.0124,0.08888 0.11782,0.08888 0.0475,0.0021 0.14676,-0.02067 z"
       style="font-style:italic;font-weight:normal;font-size:4.23333px;font-family:'Roboto Condensed';-inkscape-font-specification:'Roboto Condensed,  Italic';fill:#5f554c;stroke-width:1.63512"
       id="path3092" />
    <path
       d="m 117.40066,14.715663 q 0.004,-0.09095 0.0579,-0.157096 0.0537,-0.06821 0.14676,-0.07028 0.0971,-0.0021 0.15089,0.06408 0.0537,0.06615 0.0496,0.157096 -0.004,0.08682 -0.0599,0.152962 -0.0558,0.06408 -0.14676,0.06615 -0.0951,0.0021 -0.14883,-0.05994 -0.0517,-0.06408 -0.0496,-0.152963 z m 0.27285,0.589111 -0.3886,2.236554 h -0.35554 l 0.38861,-2.236554 z"
       style="font-style:italic;font-weight:normal;font-size:4.23333px;font-family:'Roboto Condensed';-inkscape-font-specification:'Roboto Condensed,  Italic';fill:#5f554c;stroke-width:1.63512"
       id="path3089" />
    <path
       d="m 119.00263,16.952218 q 0.0165,-0.117823 -0.0475,-0.194304 -0.062,-0.07855 -0.28319,-0.190169 -0.21911,-0.111621 -0.38861,-0.248046 -0.1695,-0.138493 -0.15296,-0.405143 0.0165,-0.299723 0.24185,-0.47749 0.22531,-0.179834 0.51469,-0.173633 0.29973,0.0062 0.46922,0.19637 0.1695,0.188103 0.1571,0.483691 l -0.35347,-0.0021 q 0.006,-0.142626 -0.0641,-0.250113 -0.0703,-0.109554 -0.22945,-0.111621 -0.14883,0 -0.25631,0.08682 -0.10749,0.08682 -0.12816,0.235644 -0.0145,0.10542 0.0351,0.171566 0.0496,0.06615 0.26458,0.173633 0.21704,0.105419 0.40515,0.248046 0.1881,0.142627 0.17156,0.427881 -0.0186,0.318326 -0.25218,0.491959 -0.23151,0.173633 -0.53537,0.167432 -0.31212,-0.0062 -0.50229,-0.202572 -0.1881,-0.198437 -0.1757,-0.510563 l 0.35967,0.0021 q -0.006,0.169499 0.0723,0.28112 0.0786,0.111621 0.26252,0.113688 0.1509,0.0021 0.27285,-0.07648 0.12196,-0.07855 0.14263,-0.237711 z"
       style="font-style:italic;font-weight:normal;font-size:4.23333px;font-family:'Roboto Condensed';-inkscape-font-specification:'Roboto Condensed,  Italic';fill:#5f554c;stroke-width:1.63512"
       id="path3086" />
    <path
       d="m 120.52398,17.541328 q -0.10335,0.04134 -0.23358,0.03721 -0.24184,-0.0041 -0.30799,-0.200504 -0.0641,-0.19637 -0.0455,-0.392741 l 0.22737,-1.386994 h -0.33073 l 0.0517,-0.293522 h 0.32866 l 0.0951,-0.543635 h 0.3576 l -0.0951,0.543635 h 0.32867 l -0.0517,0.293522 h -0.3266 l -0.23564,1.393196 q -0.008,0.07855 0.004,0.167431 0.0124,0.08888 0.11783,0.08888 0.0475,0.0021 0.14676,-0.02067 z"
       style="font-style:italic;font-weight:normal;font-size:4.23333px;font-family:'Roboto Condensed';-inkscape-font-specification:'Roboto Condensed,  Italic';fill:#5f554c;stroke-width:1.63512"
       id="path3083" />
    <path
       d="m 121.43142,14.715663 q 0.004,-0.09095 0.0579,-0.157096 0.0537,-0.06821 0.14676,-0.07028 0.0971,-0.0021 0.15089,0.06408 0.0537,0.06615 0.0496,0.157096 -0.004,0.08682 -0.0599,0.152962 -0.0558,0.06408 -0.14676,0.06615 -0.0951,0.0021 -0.14883,-0.05994 -0.0517,-0.06408 -0.0496,-0.152963 z m 0.27285,0.589111 -0.38861,2.236554 h -0.35553 l 0.38861,-2.236554 z"
       style="font-style:italic;font-weight:normal;font-size:4.23333px;font-family:'Roboto Condensed';-inkscape-font-specification:'Roboto Condensed,  Italic';fill:#5f554c;stroke-width:1.63512"
       id="path3080" />
    <path
       d="m 122.67992,17.274678 q 0.20257,0.0062 0.31213,-0.12609 0.11162,-0.132292 0.15296,-0.312126 l 0.33486,-0.0021 q -0.0455,0.314193 -0.26872,0.535368 -0.22117,0.221175 -0.5519,0.214974 -0.29766,-0.0062 -0.45475,-0.157097 -0.1571,-0.152962 -0.20464,-0.386539 -0.0475,-0.235644 -0.0186,-0.491959 l 0.0289,-0.223242 q 0.0868,-0.661458 0.47129,-0.932242 0.20051,-0.14056 0.5023,-0.130225 0.3514,0.01034 0.49816,0.252181 0.14883,0.241845 0.13642,0.560172 l -0.33486,-0.0021 q 0.006,-0.173633 -0.0537,-0.330729 -0.0579,-0.159163 -0.26665,-0.167431 -0.20671,-0.0083 -0.32867,0.09715 -0.11988,0.10542 -0.17983,0.274919 -0.0599,0.167431 -0.0971,0.450618 -0.0351,0.281119 -0.031,0.467154 0.002,0.167432 0.0786,0.285254 0.0765,0.117822 0.27492,0.124023 z"
       style="font-style:italic;font-weight:normal;font-size:4.23333px;font-family:'Roboto Condensed';-inkscape-font-specification:'Roboto Condensed,  Italic';fill:#5f554c;stroke-width:1.63512"
       id="path3077" />
    <path
       d="m 124.91234,17.541328 q -0.0124,-0.06201 -0.0103,-0.121956 l 0.008,-0.119889 q -0.23978,0.285254 -0.51263,0.285254 -0.28318,-0.0021 -0.42788,-0.183968 -0.14262,-0.181901 -0.12609,-0.452686 0.0248,-0.390673 0.31213,-0.576708 0.28939,-0.188102 0.64905,-0.188102 h 0.26459 l 0.0351,-0.239779 q 0.0165,-0.16123 -0.0434,-0.264583 -0.06,-0.103352 -0.23565,-0.103352 -0.16329,-0.0021 -0.27078,0.09715 -0.10749,0.09715 -0.13849,0.250114 l -0.35347,0.0021 q 0.0289,-0.299723 0.26872,-0.483691 0.23978,-0.186035 0.53123,-0.179834 0.31626,0.0041 0.47129,0.192236 0.1571,0.186035 0.12609,0.496094 l -0.1819,1.103807 q -0.0186,0.117822 -0.0145,0.227376 l 0.0103,0.225309 -0.004,0.03514 z m -0.44028,-0.28732 q 0.26665,0.0041 0.46095,-0.262516 l 0.093,-0.537435 -0.1633,-0.0021 q -0.22117,0 -0.42168,0.101286 -0.19844,0.101286 -0.22737,0.349332 -0.0186,0.150895 0.0351,0.252181 0.0558,0.09922 0.22324,0.09922 z"
       style="font-style:italic;font-weight:normal;font-size:4.23333px;font-family:'Roboto Condensed';-inkscape-font-specification:'Roboto Condensed,  Italic';fill:#5f554c;stroke-width:1.63512"
       id="path3074" />
    <path
       d="m 126.8099,15.583827 q -0.25012,-0.0041 -0.41962,0.272851 l -0.29145,1.68465 h -0.35553 l 0.3886,-2.236554 0.33073,-0.0021 -0.0393,0.204639 q 0.23978,-0.250114 0.54777,-0.241846 0.16329,0.0021 0.28525,0.08268 0.12402,0.08062 0.17363,0.237712 0.26665,-0.328662 0.60978,-0.324528 0.22945,0.0041 0.3452,0.126091 0.11576,0.121956 0.14883,0.307991 0.0331,0.183968 0.0124,0.376204 l -0.24598,1.469676 h -0.35553 l 0.24391,-1.475877 q 0.0186,-0.173633 -0.0248,-0.326595 -0.0434,-0.155029 -0.25632,-0.157096 -0.1819,-0.0041 -0.30385,0.142627 -0.11989,0.146761 -0.14676,0.310058 l -0.002,0.01447 -0.25425,1.492414 h -0.3576 l 0.24598,-1.47381 q 0.0186,-0.167432 -0.0289,-0.322461 -0.0455,-0.155029 -0.25011,-0.16123 z"
       style="font-style:italic;font-weight:normal;font-size:4.23333px;font-family:'Roboto Condensed';-inkscape-font-specification:'Roboto Condensed,  Italic';fill:#5f554c;stroke-width:1.63512"
       id="path3071" />
    <path
       d="m 130.3735,17.251941 q -0.13229,0.171565 -0.32659,0.254247 -0.19431,0.08062 -0.40721,0.07648 -0.29146,-0.0041 -0.45476,-0.146761 -0.16123,-0.142627 -0.21704,-0.367936 -0.0558,-0.227376 -0.0289,-0.483691 l 0.0248,-0.202572 q 0.0827,-0.669726 0.45682,-0.967382 0.20257,-0.16123 0.50849,-0.150895 0.29973,0.0083 0.43822,0.169499 0.14056,0.159163 0.17157,0.398941 0.031,0.239779 0,0.485759 l -0.031,0.212906 -1.19683,-0.0021 -0.008,0.05994 q -0.0248,0.150895 -0.008,0.305924 0.0145,0.157096 0.0992,0.264583 0.0868,0.107487 0.27905,0.111621 0.28525,0.0083 0.5271,-0.252181 z m -0.46922,-1.676382 q -0.21704,-0.0124 -0.3514,0.140559 -0.13436,0.152962 -0.21497,0.502295 l 0.85576,0.0021 0.008,-0.05581 q 0.0248,-0.188102 -0.0186,-0.382405 -0.0434,-0.194303 -0.27905,-0.206705 z"
       style="font-style:italic;font-weight:normal;font-size:4.23333px;font-family:'Roboto Condensed';-inkscape-font-specification:'Roboto Condensed,  Italic';fill:#5f554c;stroke-width:1.63512"
       id="path3068" />
    <path
       d="m 131.85558,15.583827 q -0.15503,-0.0041 -0.26872,0.101286 -0.11162,0.105419 -0.19017,0.225309 l -0.28112,1.630906 h -0.3576 l 0.38861,-2.236554 0.33486,-0.0021 -0.0475,0.239779 q 0.25218,-0.287321 0.55397,-0.279053 0.22531,0.0041 0.3328,0.132292 0.10748,0.12609 0.13229,0.312125 0.0269,0.186035 0.008,0.367936 l -0.24391,1.465542 h -0.35761 l 0.24598,-1.471743 q 0.0165,-0.157096 -0.0145,-0.318327 -0.031,-0.163297 -0.23564,-0.167431 z"
       style="font-style:italic;font-weight:normal;font-size:4.23333px;font-family:'Roboto Condensed';-inkscape-font-specification:'Roboto Condensed,  Italic';fill:#5f554c;stroke-width:1.63512"
       id="path3065" />
    <path
       d="m 133.55263,17.541328 q -0.10335,0.04134 -0.23358,0.03721 -0.24184,-0.0041 -0.30799,-0.200504 -0.0641,-0.19637 -0.0455,-0.392741 l 0.22737,-1.386994 h -0.33072 l 0.0517,-0.293522 h 0.32866 l 0.0951,-0.543635 h 0.3576 l -0.0951,0.543635 h 0.32867 l -0.0517,0.293522 h -0.3266 l -0.23564,1.393196 q -0.008,0.07855 0.004,0.167431 0.0124,0.08888 0.11783,0.08888 0.0475,0.0021 0.14676,-0.02067 z"
       style="font-style:italic;font-weight:normal;font-size:4.23333px;font-family:'Roboto Condensed';-inkscape-font-specification:'Roboto Condensed,  Italic';fill:#5f554c;stroke-width:1.63512"
       id="path3062" />
    <path
       d="m 135.50187,17.251941 q -0.1323,0.171565 -0.3266,0.254247 -0.1943,0.08062 -0.40721,0.07648 -0.29145,-0.0041 -0.45475,-0.146761 -0.16123,-0.142627 -0.21704,-0.367936 -0.0558,-0.227376 -0.0289,-0.483691 l 0.0248,-0.202572 q 0.0827,-0.669726 0.45682,-0.967382 0.20257,-0.16123 0.5085,-0.150895 0.29972,0.0083 0.43821,0.169499 0.14056,0.159163 0.17157,0.398941 0.031,0.239779 0,0.485759 l -0.031,0.212906 -1.19682,-0.0021 -0.008,0.05994 q -0.0248,0.150895 -0.008,0.305924 0.0145,0.157096 0.0992,0.264583 0.0868,0.107487 0.27905,0.111621 0.28526,0.0083 0.5271,-0.252181 z m -0.46923,-1.676382 q -0.21704,-0.0124 -0.3514,0.140559 -0.13435,0.152962 -0.21497,0.502295 l 0.85576,0.0021 0.008,-0.05581 q 0.0248,-0.188102 -0.0186,-0.382405 -0.0434,-0.194303 -0.27906,-0.206705 z"
       style="font-style:italic;font-weight:normal;font-size:4.23333px;font-family:'Roboto Condensed';-inkscape-font-specification:'Roboto Condensed,  Italic';fill:#5f554c;stroke-width:1.63512"
       id="path3059" />
    <path
       d="m 137.73635,17.584737 q -0.32039,-0.01034 -0.47749,-0.260449 l -0.2005,1.076936 h -0.3576 l 0.53743,-3.09645 0.32246,-0.0021 -0.0393,0.24598 q 0.21911,-0.291455 0.54157,-0.287321 0.28732,0.0062 0.41341,0.177767 0.12816,0.169498 0.15296,0.413411 0.0331,0.353467 -0.0475,0.795816 -0.0806,0.440283 -0.26665,0.673861 -0.11782,0.148828 -0.25632,0.208772 -0.13642,0.05788 -0.32246,0.05374 z m 0.19844,-2.00091 q -0.14263,-0.0041 -0.24805,0.07441 -0.10542,0.07855 -0.18396,0.188102 l -0.20258,1.17202 q 0.10129,0.243913 0.34314,0.254248 0.21083,0.0083 0.33486,-0.10542 0.12402,-0.115755 0.18603,-0.295589 0.062,-0.179833 0.0909,-0.434081 0.031,-0.256315 0.0269,-0.429948 -0.004,-0.171565 -0.0786,-0.295589 -0.0724,-0.12609 -0.26872,-0.128157 z"
       style="font-style:italic;font-weight:normal;font-size:4.23333px;font-family:'Roboto Condensed';-inkscape-font-specification:'Roboto Condensed,  Italic';fill:#5f554c;stroke-width:1.63512"
       id="path3056" />
    <path
       d="m 140.41526,17.251941 q -0.13229,0.171565 -0.3266,0.254247 -0.1943,0.08062 -0.40721,0.07648 -0.29145,-0.0041 -0.45475,-0.146761 -0.16123,-0.142627 -0.21704,-0.367936 -0.0558,-0.227376 -0.0289,-0.483691 l 0.0248,-0.202572 q 0.0827,-0.669726 0.45681,-0.967382 0.20258,-0.16123 0.5085,-0.150895 0.29972,0.0083 0.43822,0.169499 0.14056,0.159163 0.17156,0.398941 0.031,0.239779 0,0.485759 l -0.031,0.212906 -1.19683,-0.0021 -0.008,0.05994 q -0.0248,0.150895 -0.008,0.305924 0.0145,0.157096 0.0992,0.264583 0.0868,0.107487 0.27906,0.111621 0.28525,0.0083 0.52709,-0.252181 z m -0.46922,-1.676382 q -0.21705,-0.0124 -0.3514,0.140559 -0.13436,0.152962 -0.21498,0.502295 l 0.85576,0.0021 0.008,-0.05581 q 0.0248,-0.188102 -0.0186,-0.382405 -0.0434,-0.194303 -0.27905,-0.206705 z"
       style="font-style:italic;font-weight:normal;font-size:4.23333px;font-family:'Roboto Condensed';-inkscape-font-specification:'Roboto Condensed,  Italic';fill:#5f554c;stroke-width:1.63512"
       id="path3053" />
    <path
       d="m 141.89734,15.583827 q -0.15503,-0.0041 -0.26872,0.101286 -0.11162,0.105419 -0.19017,0.225309 l -0.28112,1.630906 h -0.3576 l 0.38861,-2.236554 0.33486,-0.0021 -0.0475,0.239779 q 0.25218,-0.287321 0.55397,-0.279053 0.22531,0.0041 0.33279,0.132292 0.10749,0.12609 0.1323,0.312125 0.0269,0.186035 0.008,0.367936 l -0.24391,1.465542 h -0.3576 l 0.24598,-1.471743 q 0.0165,-0.157096 -0.0145,-0.318327 -0.031,-0.163297 -0.23564,-0.167431 z"
       style="font-style:italic;font-weight:normal;font-size:4.23333px;font-family:'Roboto Condensed';-inkscape-font-specification:'Roboto Condensed,  Italic';fill:#5f554c;stroke-width:1.63512"
       id="path3050" />
    <path
       d="m 143.94579,16.952218 q 0.0165,-0.117823 -0.0475,-0.194304 -0.062,-0.07855 -0.28319,-0.190169 -0.21911,-0.111621 -0.38861,-0.248046 -0.1695,-0.138493 -0.15296,-0.405143 0.0165,-0.299723 0.24185,-0.47749 0.22531,-0.179834 0.51469,-0.173633 0.29973,0.0062 0.46923,0.19637 0.16949,0.188103 0.15709,0.483691 l -0.35346,-0.0021 q 0.006,-0.142626 -0.0641,-0.250113 -0.0703,-0.109554 -0.22945,-0.111621 -0.14882,0 -0.25631,0.08682 -0.10749,0.08682 -0.12816,0.235644 -0.0145,0.10542 0.0351,0.171566 0.0496,0.06615 0.26458,0.173633 0.21704,0.105419 0.40515,0.248046 0.1881,0.142627 0.17156,0.427881 -0.0186,0.318326 -0.25218,0.491959 -0.23151,0.173633 -0.53537,0.167432 -0.31212,-0.0062 -0.50229,-0.202572 -0.1881,-0.198437 -0.1757,-0.510563 l 0.35967,0.0021 q -0.006,0.169499 0.0723,0.28112 0.0786,0.111621 0.26252,0.113688 0.1509,0.0021 0.27285,-0.07648 0.12196,-0.07855 0.14263,-0.237711 z"
       style="font-style:italic;font-weight:normal;font-size:4.23333px;font-family:'Roboto Condensed';-inkscape-font-specification:'Roboto Condensed,  Italic';fill:#5f554c;stroke-width:1.63512"
       id="path3047" />
    <path
       d="m 145.79993,17.541328 q -0.0124,-0.06201 -0.0103,-0.121956 l 0.008,-0.119889 q -0.23978,0.285254 -0.51263,0.285254 -0.28319,-0.0021 -0.42788,-0.183968 -0.14263,-0.181901 -0.12609,-0.452686 0.0248,-0.390673 0.31212,-0.576708 0.28939,-0.188102 0.64906,-0.188102 h 0.26458 l 0.0351,-0.239779 q 0.0165,-0.16123 -0.0434,-0.264583 -0.0599,-0.103352 -0.23564,-0.103352 -0.1633,-0.0021 -0.27079,0.09715 -0.10748,0.09715 -0.13849,0.250114 l -0.35347,0.0021 q 0.0289,-0.299723 0.26872,-0.483691 0.23978,-0.186035 0.53124,-0.179834 0.31625,0.0041 0.47128,0.192236 0.1571,0.186035 0.12609,0.496094 l -0.1819,1.103807 q -0.0186,0.117822 -0.0145,0.227376 l 0.0103,0.225309 -0.004,0.03514 z m -0.44028,-0.28732 q 0.26665,0.0041 0.46096,-0.262516 l 0.093,-0.537435 -0.16329,-0.0021 q -0.22118,0 -0.42168,0.101286 -0.19844,0.101286 -0.22738,0.349332 -0.0186,0.150895 0.0351,0.252181 0.0558,0.09922 0.22324,0.09922 z"
       style="font-style:italic;font-weight:normal;font-size:4.23333px;font-family:'Roboto Condensed';-inkscape-font-specification:'Roboto Condensed,  Italic';fill:#5f554c;stroke-width:1.63512"
       id="path3044" />
    <path
       d="m 147.72643,15.583827 q -0.15503,-0.0041 -0.26872,0.101286 -0.11162,0.105419 -0.19016,0.225309 l -0.28112,1.630906 h -0.3576 l 0.3886,-2.236554 0.33486,-0.0021 -0.0475,0.239779 q 0.25218,-0.287321 0.55397,-0.279053 0.22531,0.0041 0.3328,0.132292 0.10749,0.12609 0.13229,0.312125 0.0269,0.186035 0.008,0.367936 l -0.24391,1.465542 h -0.3576 l 0.24598,-1.471743 q 0.0165,-0.157096 -0.0145,-0.318327 -0.031,-0.163297 -0.23565,-0.167431 z"
       style="font-style:italic;font-weight:normal;font-size:4.23333px;font-family:'Roboto Condensed';-inkscape-font-specification:'Roboto Condensed,  Italic';fill:#5f554c;stroke-width:1.63512"
       id="path3041" />
    <path
       d="m 149.78729,17.541328 0.0413,-0.241845 q -0.22325,0.291455 -0.53537,0.283187 -0.27699,-0.0062 -0.40721,-0.177767 -0.12816,-0.173633 -0.1571,-0.415478 -0.0289,-0.243913 -0.006,-0.458887 l 0.0248,-0.208772 q 0.0331,-0.248047 0.12402,-0.494027 0.093,-0.248046 0.27698,-0.409277 0.18397,-0.16123 0.48163,-0.152962 0.31006,0.01034 0.45889,0.260449 l 0.21497,-1.159618 h 0.35553 l -0.54983,3.174997 z m -0.71934,-0.700731 q 0.002,0.169498 0.0744,0.293521 0.0724,0.121957 0.26459,0.126091 0.15089,0.0021 0.25631,-0.07855 0.10749,-0.08061 0.1881,-0.196371 l 0.19224,-1.128612 q -0.10129,-0.262516 -0.34313,-0.272851 -0.20464,-0.01033 -0.32866,0.09715 -0.12196,0.107487 -0.18397,0.285254 -0.062,0.1757 -0.093,0.440283 -0.031,0.264583 -0.0269,0.434082 z"
       style="font-style:italic;font-weight:normal;font-size:4.23333px;font-family:'Roboto Condensed';-inkscape-font-specification:'Roboto Condensed,  Italic';fill:#5f554c;stroke-width:1.63512"
       id="path3038" />
    <path
       d="m 150.76087,16.530538 0.0207,-0.163297 q 0.0847,-0.661458 0.48989,-0.961181 0.20671,-0.152962 0.50643,-0.142627 0.28732,0.0062 0.44648,0.167432 0.15917,0.16123 0.21291,0.401008 0.0558,0.237712 0.031,0.485759 l -0.0207,0.165364 q -0.0661,0.516764 -0.33487,0.816487 -0.26665,0.297656 -0.66146,0.283187 -0.28732,-0.0062 -0.44648,-0.165365 -0.15916,-0.16123 -0.21497,-0.401009 -0.0537,-0.239778 -0.0289,-0.485758 z m 0.35553,0.312126 q 0.0124,0.169498 0.0909,0.295589 0.0806,0.12609 0.26459,0.134358 0.23771,0.0124 0.38447,-0.155029 0.14883,-0.167431 0.2129,-0.496093 0.0641,-0.330729 0.0434,-0.613916 -0.0124,-0.169498 -0.093,-0.295589 -0.0785,-0.128157 -0.26458,-0.136425 -0.19637,-0.01034 -0.32453,0.109554 -0.12815,0.119889 -0.19843,0.30179 -0.0682,0.181901 -0.0951,0.388606 -0.0248,0.206706 -0.0269,0.293522 0,0.08682 0.006,0.173633 z"
       style="font-style:italic;font-weight:normal;font-size:4.23333px;font-family:'Roboto Condensed';-inkscape-font-specification:'Roboto Condensed,  Italic';fill:#5f554c;stroke-width:1.63512"
       id="path3035" />
  </g>
</svg>
