<?xml version="1.0" encoding="UTF-8" standalone="no"?>
<!-- Created with Inkscape (http://www.inkscape.org/) -->

<svg
   width="600"
   height="200"
   viewBox="0 0 158.74999 52.916665"
   version="1.1"
   id="svg5"
   inkscape:version="1.2.2 (b0a8486541, 2022-12-01)"
   sodipodi:docname="main-logo.svg"
   xmlns:inkscape="http://www.inkscape.org/namespaces/inkscape"
   xmlns:sodipodi="http://sodipodi.sourceforge.net/DTD/sodipodi-0.dtd"
   xmlns="http://www.w3.org/2000/svg"
   xmlns:svg="http://www.w3.org/2000/svg">
  <sodipodi:namedview
     id="namedview7"
     pagecolor="#ffffff"
     bordercolor="#000000"
     borderopacity="0.25"
     inkscape:showpageshadow="false"
     inkscape:pageopacity="0.0"
     inkscape:pagecheckerboard="0"
     inkscape:deskcolor="#d1d1d1"
     inkscape:document-units="px"
     showgrid="false"
     inkscape:zoom="9.1028213"
     inkscape:cx="448.59718"
     inkscape:cy="97.881741"
     inkscape:window-width="2528"
     inkscape:window-height="1404"
     inkscape:window-x="2592"
     inkscape:window-y="0"
     inkscape:window-maximized="1"
     inkscape:current-layer="layer1" />
  <defs
     id="defs2" />
  <g
     inkscape:label="Livello 1"
     inkscape:groupmode="layer"
     id="layer1">
    <path
       id="path457"
       style="font-weight:500;font-size:4.23333px;font-family:Barlow;-inkscape-font-specification:'Barlow Medium';fill:#5f554c;stroke-width:2.66399;fill-opacity:1"
       d="m 14.46826,12.579342 c -0.484575,-0.264329 -1.009738,-0.396672 -1.573615,-0.396672 -0.601469,-2e-6 -1.15767,0.15048 -1.668916,0.451219 -0.511235,0.300744 -0.917033,0.705938 -1.217778,1.217181 -0.3007377,0.511247 -0.449356,1.0689 -0.44935,1.670369 -2.3e-6,0.616504 0.148909,1.189412 0.449639,1.715696 0.300738,0.511247 0.705932,0.917042 1.217179,1.217779 0.511247,0.300739 1.068903,0.449348 1.670371,0.449348 0.601468,0 1.157668,-0.15048 1.668916,-0.451219 0.511248,-0.300734 0.917042,-0.705929 1.21778,-1.217177 0.300729,-0.526284 0.451932,-1.096885 0.451932,-1.713389 0,-0.601469 -0.15048,-1.157669 -0.451218,-1.668916 -0.300735,-0.511235 -0.708322,-0.91841 -1.219564,-1.219154 -0.03197,-0.0188 -0.06308,-0.03745 -0.09538,-0.05509 z m -0.625863,1.199667 c 0.169866,0.08811 0.328616,0.203322 0.475214,0.344307 0.390958,0.375917 0.584577,0.843017 0.584583,1.399376 0,0.556357 -0.193883,1.029511 -0.584842,1.420463 -0.390954,0.390954 -0.866589,0.586869 -1.422949,0.586863 -0.556358,1e-6 -1.028136,-0.196269 -1.41909,-0.587227 -0.390954,-0.390954 -0.588243,-0.864208 -0.588243,-1.420566 0,-0.54132 0.197449,-1.00116 0.588403,-1.377078 0.390955,-0.390954 0.862832,-0.585858 1.419189,-0.585858 0.347721,-2e-6 0.66462,0.07287 0.94774,0.21971 z" />
    <path
       id="path402"
       style="font-weight:500;font-size:4.23333px;font-family:Barlow;-inkscape-font-specification:'Barlow Medium';fill:#5f554c;stroke-width:2.66399;fill-opacity:1"
       d="m 19.725952,22.788944 c -0.511247,-0.300739 -1.076065,-0.44945 -1.692569,-0.44945 -0.601469,-3e-6 -1.150506,0.150577 -1.646718,0.451316 -0.511235,0.300743 -0.917032,0.705938 -1.217778,1.21718 -0.300739,0.511248 -0.451739,1.067524 -0.451735,1.668993 -1e-6,0.616503 0.152669,1.188402 0.453403,1.714688 0.285701,0.511241 0.683741,0.916933 1.194983,1.217678 0.511248,0.300739 1.067526,0.451735 1.668994,0.451735 0.616507,0 1.179868,-0.150383 1.691114,-0.451117 0.511237,-0.300739 0.917035,-0.705939 1.21778,-1.217182 0.300739,-0.526284 0.450919,-1.100645 0.450928,-1.71715 0,-0.601468 -0.15048,-1.157668 -0.451218,-1.668915 -0.300743,-0.511236 -0.705942,-0.917032 -1.217184,-1.217776 z m -0.725003,1.145609 c 0.171986,0.0881 0.328616,0.203322 0.475214,0.344307 0.390959,0.375921 0.588342,0.842008 0.588342,1.398368 0,0.556358 -0.197647,1.030518 -0.588601,1.421473 -0.390954,0.390954 -0.869992,0.58576 -1.441386,0.58576 -0.556358,0 -1.024735,-0.195164 -1.400654,-0.586118 -0.390954,-0.390954 -0.584484,-0.865212 -0.584478,-1.421573 -10e-7,-0.541321 0.196071,-0.998776 0.58703,-1.374694 0.375921,-0.390959 0.840631,-0.585957 1.396992,-0.585957 0.357125,0 0.680911,0.07159 0.967549,0.218429 z" />
    <path
       id="path2432"
       style="font-weight:normal;font-size:4.23333px;font-family:Roboto;-inkscape-font-specification:Roboto;fill:#5f554c;stroke-width:1.63053;fill-opacity:1"
       d="m 23.333665,10.513698 v 9.273051 H 9.558601 v 1.866514 h 13.775064 v 7.408918 h 2.459322 v -7.275596 h 4.382975 c 2.106101,0 3.715676,-0.487545 4.828177,-1.464165 1.120989,-0.976621 1.680815,-2.360155 1.680815,-4.152042 0,-1.647516 -0.559826,-3.002409 -1.680815,-4.063953 -1.112501,-1.061544 -2.722076,-1.592727 -4.828177,-1.592727 z m 2.459322,2.01174 h 4.382975 c 1.443699,0 2.478455,0.374009 3.106889,1.121337 0.628434,0.747327 0.94278,1.596267 0.94278,2.54741 0,1.053052 -0.314348,1.916988 -0.94278,2.587884 -0.628434,0.670896 -1.66319,1.00468 -3.106889,1.00468 h -4.382975 z" />
    <path
       d="M 39.792787,29.061084 V 10.513767 h 11.655767 v 2.012689 h -9.197227 v 5.961638 h 8.025282 v 1.999951 h -8.025282 v 6.573088 h 9.324615 v 1.999951 z"
       style="font-weight:normal;font-size:4.23333px;font-family:Roboto;-inkscape-font-specification:Roboto;fill:#5f554c;stroke-width:1.63053;fill-opacity:1"
       id="path2429" />
    <path
       d="m 65.460951,29.061084 -4.025376,-7.51574 H 57.07899 v 7.51574 H 54.620453 V 10.513767 h 6.139978 q 3.120938,0 4.802432,1.426716 1.694223,1.426717 1.694223,4.140026 0,1.732442 -0.942652,3.031774 -0.929914,1.286592 -2.585922,1.92352 l 4.356581,7.872418 v 0.152867 z M 57.07899,12.526456 v 7.018937 h 3.757872 q 1.974474,0 2.968076,-1.006344 1.006345,-1.019084 1.006345,-2.45854 0,-1.605056 -0.968129,-2.573185 -0.955387,-0.980868 -3.082723,-0.980868 z"
       style="font-weight:normal;font-size:4.23333px;font-family:Roboto;-inkscape-font-specification:Roboto;fill:#5f554c;stroke-width:1.63053;fill-opacity:1"
       id="path2426" />
    <path
       d="m 68.913094,29.061084 7.069892,-18.547317 h 2.152809 l 7.095369,18.547317 H 82.708935 L 80.93828,24.207699 h -7.75777 l -1.757925,4.853385 z m 5.006248,-6.866074 h 6.292845 l -3.146425,-8.64947 z"
       style="font-weight:normal;font-size:4.23333px;font-family:Roboto;-inkscape-font-specification:Roboto;fill:#5f554c;stroke-width:1.63053;fill-opacity:1"
       id="path2423" />
    <path
       d="M 87.715183,29.061084 V 10.513767 h 11.655765 v 2.012689 h -9.197224 v 5.961638 h 8.025279 v 1.999951 h -8.025279 v 6.573088 h 9.324614 v 1.999951 z"
       style="font-weight:normal;font-size:4.23333px;font-family:Roboto;-inkscape-font-specification:Roboto;fill:#5f554c;stroke-width:1.63053;fill-opacity:1"
       id="path2420" />
    <path
       id="path2417"
       style="font-weight:normal;font-size:4.23333px;font-family:Roboto;-inkscape-font-specification:Roboto;fill:#5f554c;stroke-width:1.63053;fill-opacity:1"
       d="m 109.03618,10.261338 c -2.1061,0.04831 -3.82764,0.848374 -5.16862,2.395042 -1.38426,1.588068 -2.07603,3.770087 -2.07603,6.547083 v 1.171333 c 0,2.785489 0.69756,4.9733 2.09031,6.561368 1.07485,1.225592 2.38955,1.977217 3.94492,2.256959 0.11697,0.01682 0.23445,0.03137 0.35234,0.04284 v 3.866351 h 1.99984 V 29.24311 c 0.29992,-0.02184 0.49281,-0.04284 0.49281,-0.04284 0.18092,-0.03124 0.35793,-0.06806 0.53329,-0.111896 0.7653,-0.239825 1.52465,-0.559477 2.26887,-1.030868 1.01908,-0.730342 1.81176,-1.74566 2.38075,-3.044989 0.569,-1.307821 0.85469,-2.854324 0.85469,-4.637716 V 19.0511 c -0.0255,-2.726042 -0.71724,-4.870216 -2.07601,-6.432807 -1.35029,-1.571084 -3.14805,-2.35695 -5.39003,-2.35695 -0.0687,0 -0.13923,-0.0016 -0.20714,0 z m 0.0643,2.087924 c 0.0469,-0.0011 0.0954,0 0.14286,0 1.58807,0 2.82364,0.587436 3.70684,1.75938 0.88319,1.171943 1.32608,2.860624 1.32608,5.068633 v 1.197521 c 0,2.224994 -0.43707,3.92867 -1.3118,5.109106 -0.86621,1.171941 -2.09837,1.756999 -3.69493,1.756999 -1.52014,0 -2.74309,-0.585056 -3.66875,-1.756999 -0.91719,-1.180436 -1.37608,-2.884112 -1.37608,-5.109106 v -1.197521 c 0,-2.208009 0.45549,-3.89669 1.36417,-5.068633 0.88852,-1.135317 2.05724,-1.723901 3.51162,-1.75938 z" />
    <path
       d="m 131.10266,10.513767 h 2.4458 v 12.547464 q 0,3.133681 -2.01269,4.700522 -2.01269,1.554102 -4.71326,1.554102 -2.8407,0 -4.77696,-1.554102 -1.92351,-1.566841 -1.92351,-4.700522 V 10.513767 h 2.43305 v 12.547464 q 0,2.17829 1.17195,3.222851 1.18468,1.031821 3.09547,1.031821 1.93625,0 3.1082,-1.031821 1.17195,-1.044561 1.17195,-3.222851 z"
       style="font-weight:normal;font-size:4.23333px;font-family:Roboto;-inkscape-font-specification:Roboto;fill:#5f554c;stroke-width:1.63053;fill-opacity:1"
       id="path2414" />
    <path
       d="M 137.40824,29.061084 V 10.513767 H 149.064 v 2.012689 h -9.19723 v 5.961638 h 8.02529 v 1.999951 h -8.02529 v 6.573088 h 9.32462 v 1.999951 z"
       style="font-weight:normal;font-size:4.23333px;font-family:Roboto;-inkscape-font-specification:Roboto;fill:#5f554c;stroke-width:1.63053;fill-opacity:1"
       id="path2411" />
    <path
       d="m 111.88754,32.355204 c -0.004,0.03804 -0.008,0.07186 -0.008,0.09722 0,0.185991 0.12681,0.308576 0.3128,0.308576 0.13527,0 0.31281,-0.05072 0.44807,-0.131039 0.25363,-0.143721 0.40157,-0.359301 0.40157,-0.570655 0,-0.156401 -0.0254,-0.190218 -0.2663,-0.338165 -0.14372,-0.093 -0.2029,-0.17331 -0.2029,-0.283214 0,-0.14372 0.12258,-0.270533 0.2663,-0.270533 0.0972,0 0.17331,0.0465 0.26208,0.164856 0.14372,-0.139493 0.14372,-0.139493 0.19868,-0.219807 -0.0846,-0.10145 -0.16486,-0.143721 -0.28322,-0.143721 -0.30857,0 -0.70592,0.363528 -0.70592,0.646742 0,0.131039 0.0676,0.232489 0.22826,0.34662 0.21136,0.147947 0.24095,0.185991 0.24095,0.291667 0,0.152175 -0.19445,0.329712 -0.35931,0.329712 -0.093,0 -0.16485,-0.05072 -0.20712,-0.143721 -0.0296,-0.06341 -0.038,-0.126812 -0.0423,-0.274759 -0.0465,0.03804 -0.0803,0.05918 -0.0972,0.07186 -0.0338,0.02114 -0.0719,0.04227 -0.10991,0.06763 -0.004,0 -0.0423,0.02959 -0.0761,0.05072 z"
       style="font-size:4.22707px;font-family:Z003;-inkscape-font-specification:Z003;fill:#5f554c;stroke-width:0.264191"
       id="path4709" />
    <path
       d="m 114.50832,32.17344 c -0.32125,0.194445 -0.45652,0.262078 -0.5157,0.262078 -0.055,0 -0.12258,-0.105676 -0.12258,-0.198672 0,-0.05918 0.004,-0.07186 0.0972,-0.473432 0.0211,-0.07609 0.038,-0.156401 0.055,-0.236716 0.004,-0.01268 0.0211,-0.08031 0.0296,-0.118358 0.14372,-0.0042 0.27476,-0.01268 0.41848,-0.02113 l 0.16063,-0.122585 h -0.54107 c 0.0211,-0.09722 0.0296,-0.126812 0.0423,-0.190218 0.0127,-0.04227 0.0423,-0.156402 0.10145,-0.384663 l 0.0254,-0.109904 -0.0719,0.03804 c -0.0254,0.0085 -0.0592,0.02536 -0.10568,0.0465 -0.0296,0.01691 -0.0634,0.02959 -0.0972,0.0465 -0.0169,0.0085 -0.0338,0.01691 -0.0592,0.02536 l -0.038,0.17331 -0.0465,0.2029 -0.0338,0.152174 c -0.038,0.0042 -0.0634,0.0042 -0.0761,0.0042 h -0.10145 c -0.008,0 -0.0296,0 -0.0634,0.0042 -0.0211,0.01268 -0.038,0.02536 -0.0423,0.02536 -0.0127,0.0085 -0.038,0.02959 -0.0803,0.06341 -0.008,0.0042 -0.0296,0.02536 -0.0634,0.0465 h 0.10145 0.19444 0.093 l -0.0423,0.185992 c -0.18177,0.748191 -0.18177,0.748191 -0.18177,0.883457 0,0.135266 0.0888,0.283214 0.16909,0.283214 0.093,0 0.38043,-0.17331 0.78623,-0.481886 z"
       style="font-size:4.22707px;font-family:Z003;-inkscape-font-specification:Z003;fill:#5f554c;stroke-width:0.264191"
       id="path4706" />
    <path
       d="m 116.41473,32.152305 c -0.30857,0.211353 -0.38043,0.253624 -0.4227,0.253624 -0.0296,0 -0.0507,-0.03382 -0.0507,-0.08454 0,-0.114131 0.0972,-0.557974 0.25363,-1.137082 0.0465,-0.06763 0.055,-0.07609 0.12258,-0.152175 -0.2029,-0.0465 -0.34662,-0.06341 -0.53261,-0.06341 -0.17331,0 -0.25785,0.01691 -0.36353,0.08454 -0.15217,0.08877 -0.32971,0.219807 -0.38466,0.278986 -0.16063,0.177537 -0.33394,0.748192 -0.33394,1.090584 0,0.2029 0.0676,0.338166 0.17331,0.338166 0.093,0 0.23249,-0.08454 0.76087,-0.464978 -0.0465,0.215581 -0.0634,0.321257 -0.0634,0.376209 0,0.05918 0.0254,0.08877 0.0676,0.08877 0.0549,0 0.0888,-0.01691 0.38889,-0.215581 0.14372,-0.09722 0.22404,-0.152174 0.38044,-0.266305 z m -0.74396,-0.02959 c -0.14795,0.109904 -0.22403,0.164856 -0.22826,0.169083 -0.13949,0.08877 -0.2494,0.14372 -0.30435,0.14372 -0.0719,0 -0.1099,-0.07609 -0.1099,-0.211353 0,-0.215581 0.0634,-0.494567 0.17331,-0.739737 0.10145,-0.232489 0.19444,-0.321258 0.33816,-0.321258 0.0761,0 0.21981,0.02114 0.3593,0.05495 -0.0845,0.304349 -0.11413,0.41848 -0.11836,0.439616 -0.0254,0.105676 -0.0465,0.211353 -0.0719,0.321257 -0.004,0.02113 -0.0169,0.07186 -0.038,0.14372 z"
       style="font-size:4.22707px;font-family:Z003;-inkscape-font-specification:Z003;fill:#5f554c;stroke-width:0.264191"
       id="path4703" />
    <path
       d="m 117.64481,32.17344 c -0.32126,0.194445 -0.45652,0.262078 -0.5157,0.262078 -0.0549,0 -0.12259,-0.105676 -0.12259,-0.198672 0,-0.05918 0.004,-0.07186 0.0972,-0.473432 0.0211,-0.07609 0.038,-0.156401 0.0549,-0.236716 0.004,-0.01268 0.0211,-0.08031 0.0296,-0.118358 0.14372,-0.0042 0.27476,-0.01268 0.41848,-0.02113 l 0.16063,-0.122585 h -0.54107 c 0.0211,-0.09722 0.0296,-0.126812 0.0423,-0.190218 0.0127,-0.04227 0.0423,-0.156402 0.10145,-0.384663 l 0.0254,-0.109904 -0.0719,0.03804 c -0.0254,0.0085 -0.0592,0.02536 -0.10567,0.0465 -0.0296,0.01691 -0.0634,0.02959 -0.0972,0.0465 -0.0169,0.0085 -0.0338,0.01691 -0.0592,0.02536 l -0.038,0.17331 -0.0465,0.2029 -0.0338,0.152174 c -0.038,0.0042 -0.0634,0.0042 -0.0761,0.0042 h -0.10145 c -0.008,0 -0.0296,0 -0.0634,0.0042 -0.0211,0.01268 -0.038,0.02536 -0.0423,0.02536 -0.0127,0.0085 -0.038,0.02959 -0.0803,0.06341 -0.008,0.0042 -0.0296,0.02536 -0.0634,0.0465 h 0.10145 0.19445 0.093 l -0.0423,0.185992 c -0.18176,0.748191 -0.18176,0.748191 -0.18176,0.883457 0,0.135266 0.0888,0.283214 0.16908,0.283214 0.093,0 0.38044,-0.17331 0.78624,-0.481886 z"
       style="font-size:4.22707px;font-family:Z003;-inkscape-font-specification:Z003;fill:#5f554c;stroke-width:0.264191"
       id="path4700" />
    <path
       d="m 118.66353,30.102176 c -0.11835,0.09299 -0.21558,0.169083 -0.29166,0.219807 0.0296,0.08877 0.0676,0.160629 0.16062,0.295895 0.11836,-0.105676 0.13104,-0.118358 0.27476,-0.228261 -0.0127,-0.02536 -0.0211,-0.04227 -0.0549,-0.09722 -0.0254,-0.05072 -0.0296,-0.05072 -0.0634,-0.135266 z m 0.16063,2.113535 -0.0719,0.03804 c -0.29167,0.160629 -0.34239,0.181764 -0.39312,0.181764 -0.0465,0 -0.0761,-0.0465 -0.0761,-0.118358 0,-0.07186 0,-0.07186 0.13949,-0.629833 0.1564,-0.642515 0.1564,-0.642515 0.1564,-0.676331 0,-0.02536 -0.0211,-0.04227 -0.0507,-0.04227 -0.0719,0 -0.32126,0.139493 -0.66788,0.371982 l -0.008,0.118358 c 0.25785,-0.139493 0.27053,-0.14372 0.30857,-0.14372 0.0338,0 0.0507,0.02536 0.0507,0.07186 0,0.05918 -0.0127,0.118358 -0.0761,0.359301 -0.19867,0.73551 -0.19867,0.73551 -0.19867,0.845414 0,0.10145 0.038,0.169083 0.10145,0.169083 0.0719,0 0.18599,-0.05495 0.41002,-0.198673 0.0803,-0.05072 0.16063,-0.101449 0.24095,-0.156401 0.038,-0.02114 0.0676,-0.04227 0.11835,-0.07186 z"
       style="font-size:4.22707px;font-family:Z003;-inkscape-font-specification:Z003;fill:#5f554c;stroke-width:0.264191"
       id="path4697" />
    <path
       d="m 118.7058,32.355204 c -0.004,0.03804 -0.008,0.07186 -0.008,0.09722 0,0.185991 0.12681,0.308576 0.3128,0.308576 0.13527,0 0.31281,-0.05072 0.44807,-0.131039 0.25363,-0.143721 0.40157,-0.359301 0.40157,-0.570655 0,-0.156401 -0.0254,-0.190218 -0.2663,-0.338165 -0.14372,-0.093 -0.2029,-0.17331 -0.2029,-0.283214 0,-0.14372 0.12258,-0.270533 0.2663,-0.270533 0.0972,0 0.17331,0.0465 0.26208,0.164856 0.14372,-0.139493 0.14372,-0.139493 0.19867,-0.219807 -0.0845,-0.10145 -0.16485,-0.143721 -0.28321,-0.143721 -0.30858,0 -0.70592,0.363528 -0.70592,0.646742 0,0.131039 0.0676,0.232489 0.22826,0.34662 0.21136,0.147947 0.24095,0.185991 0.24095,0.291667 0,0.152175 -0.19445,0.329712 -0.35931,0.329712 -0.093,0 -0.16485,-0.05072 -0.20712,-0.143721 -0.0296,-0.06341 -0.038,-0.126812 -0.0423,-0.274759 -0.0465,0.03804 -0.0803,0.05918 -0.0972,0.07186 -0.0338,0.02114 -0.0719,0.04227 -0.1099,0.06763 -0.004,0 -0.0423,0.02959 -0.0761,0.05072 z"
       style="font-size:4.22707px;font-family:Z003;-inkscape-font-specification:Z003;fill:#5f554c;stroke-width:0.264191"
       id="path4694" />
    <path
       d="m 121.32658,32.17344 c -0.32125,0.194445 -0.45652,0.262078 -0.5157,0.262078 -0.0549,0 -0.12258,-0.105676 -0.12258,-0.198672 0,-0.05918 0.004,-0.07186 0.0972,-0.473432 0.0211,-0.07609 0.038,-0.156401 0.0549,-0.236716 0.004,-0.01268 0.0211,-0.08031 0.0296,-0.118358 0.14372,-0.0042 0.27476,-0.01268 0.41848,-0.02113 l 0.16063,-0.122585 h -0.54107 c 0.0211,-0.09722 0.0296,-0.126812 0.0423,-0.190218 0.0127,-0.04227 0.0423,-0.156402 0.10145,-0.384663 l 0.0254,-0.109904 -0.0719,0.03804 c -0.0254,0.0085 -0.0592,0.02536 -0.10568,0.0465 -0.0296,0.01691 -0.0634,0.02959 -0.0972,0.0465 -0.0169,0.0085 -0.0338,0.01691 -0.0592,0.02536 l -0.038,0.17331 -0.0465,0.2029 -0.0338,0.152174 c -0.038,0.0042 -0.0634,0.0042 -0.0761,0.0042 h -0.10145 c -0.008,0 -0.0296,0 -0.0634,0.0042 -0.0211,0.01268 -0.038,0.02536 -0.0423,0.02536 -0.0127,0.0085 -0.038,0.02959 -0.0803,0.06341 -0.008,0.0042 -0.0296,0.02536 -0.0634,0.0465 h 0.10145 0.19444 0.093 l -0.0423,0.185992 c -0.18177,0.748191 -0.18177,0.748191 -0.18177,0.883457 0,0.135266 0.0888,0.283214 0.16908,0.283214 0.093,0 0.38044,-0.17331 0.78624,-0.481886 z"
       style="font-size:4.22707px;font-family:Z003;-inkscape-font-specification:Z003;fill:#5f554c;stroke-width:0.264191"
       id="path4691" />
    <path
       d="m 122.3453,30.102176 c -0.11835,0.09299 -0.21558,0.169083 -0.29166,0.219807 0.0296,0.08877 0.0676,0.160629 0.16063,0.295895 0.11835,-0.105676 0.13103,-0.118358 0.27476,-0.228261 -0.0127,-0.02536 -0.0211,-0.04227 -0.055,-0.09722 -0.0254,-0.05072 -0.0296,-0.05072 -0.0634,-0.135266 z m 0.16063,2.113535 -0.0719,0.03804 c -0.29166,0.160629 -0.34239,0.181764 -0.39311,0.181764 -0.0465,0 -0.0761,-0.0465 -0.0761,-0.118358 0,-0.07186 0,-0.07186 0.13949,-0.629833 0.1564,-0.642515 0.1564,-0.642515 0.1564,-0.676331 0,-0.02536 -0.0211,-0.04227 -0.0507,-0.04227 -0.0719,0 -0.32126,0.139493 -0.66788,0.371982 l -0.008,0.118358 c 0.25785,-0.139493 0.27053,-0.14372 0.30857,-0.14372 0.0338,0 0.0507,0.02536 0.0507,0.07186 0,0.05918 -0.0127,0.118358 -0.0761,0.359301 -0.19867,0.73551 -0.19867,0.73551 -0.19867,0.845414 0,0.10145 0.038,0.169083 0.10145,0.169083 0.0719,0 0.18599,-0.05495 0.41002,-0.198673 0.0803,-0.05072 0.16063,-0.101449 0.24095,-0.156401 0.038,-0.02114 0.0676,-0.04227 0.11836,-0.07186 z"
       style="font-size:4.22707px;font-family:Z003;-inkscape-font-specification:Z003;fill:#5f554c;stroke-width:0.264191"
       id="path4688" />
    <path
       d="m 123.82478,32.169213 c -0.32126,0.232489 -0.54952,0.350847 -0.68479,0.350847 -0.15217,0 -0.24094,-0.118358 -0.24094,-0.321258 0,-0.207126 0.0507,-0.473431 0.13104,-0.672104 0.0888,-0.224034 0.19444,-0.338165 0.31703,-0.338165 0.10145,0 0.1564,0.08031 0.17754,0.266305 l 0.24517,-0.14372 c 0.004,-0.02114 0.004,-0.04227 0.004,-0.05072 0,-0.181764 -0.093,-0.291668 -0.24094,-0.291668 -0.0803,0 -0.11836,0.01691 -0.27476,0.118358 -0.31703,0.198672 -0.38466,0.262078 -0.47766,0.435388 -0.11836,0.228262 -0.20712,0.587563 -0.20712,0.849641 0,0.249397 0.1099,0.388891 0.30857,0.388891 0.2029,0 0.54107,-0.164856 0.93418,-0.456524 z"
       style="font-size:4.22707px;font-family:Z003;-inkscape-font-specification:Z003;fill:#5f554c;stroke-width:0.264191"
       id="path4685" />
    <path
       d="m 125.73119,32.152305 c -0.30858,0.211353 -0.38044,0.253624 -0.42271,0.253624 -0.0296,0 -0.0507,-0.03382 -0.0507,-0.08454 0,-0.114131 0.0972,-0.557974 0.25362,-1.137082 0.0465,-0.06763 0.0549,-0.07609 0.12259,-0.152175 -0.2029,-0.0465 -0.34662,-0.06341 -0.53261,-0.06341 -0.17331,0 -0.25785,0.01691 -0.36353,0.08454 -0.15218,0.08877 -0.32971,0.219807 -0.38466,0.278986 -0.16063,0.177537 -0.33394,0.748192 -0.33394,1.090584 0,0.2029 0.0676,0.338166 0.17331,0.338166 0.093,0 0.23249,-0.08454 0.76087,-0.464978 -0.0465,0.215581 -0.0634,0.321257 -0.0634,0.376209 0,0.05918 0.0254,0.08877 0.0676,0.08877 0.055,0 0.0888,-0.01691 0.38889,-0.215581 0.14372,-0.09722 0.22403,-0.152174 0.38043,-0.266305 z m -0.74396,-0.02959 c -0.14795,0.109904 -0.22404,0.164856 -0.22827,0.169083 -0.13949,0.08877 -0.24939,0.14372 -0.30434,0.14372 -0.0719,0 -0.10991,-0.07609 -0.10991,-0.211353 0,-0.215581 0.0634,-0.494567 0.17331,-0.739737 0.10145,-0.232489 0.19445,-0.321258 0.33817,-0.321258 0.0761,0 0.2198,0.02114 0.3593,0.05495 -0.0845,0.304349 -0.11413,0.41848 -0.11836,0.439616 -0.0254,0.105676 -0.0465,0.211353 -0.0719,0.321257 -0.004,0.02113 -0.0169,0.07186 -0.038,0.14372 z"
       style="font-size:4.22707px;font-family:Z003;-inkscape-font-specification:Z003;fill:#5f554c;stroke-width:0.264191"
       id="path4682" />
    <path
       d="m 125.81573,32.748322 0.30012,-0.114131 0.27054,-1.027178 c 0.27476,-0.190218 0.45652,-0.291668 0.51147,-0.291668 0.0338,0 0.055,0.03382 0.055,0.09299 0,0.126813 -0.16062,0.7651 -0.33816,1.339982 l 0.32126,-0.114131 0.26207,-1.056768 c 0.24095,-0.156401 0.46921,-0.283213 0.51993,-0.283213 0.038,0 0.055,0.02959 0.055,0.08031 0,0.09299 -0.038,0.283214 -0.15218,0.718602 -0.0634,0.262078 -0.0845,0.367755 -0.0845,0.464977 0,0.08877 0.0211,0.135267 0.10145,0.190219 0.24517,-0.122585 0.48189,-0.27476 0.71437,-0.460751 l 0.004,-0.09722 c -0.3593,0.219808 -0.3593,0.219808 -0.41848,0.219808 -0.0465,0 -0.0761,-0.04227 -0.0761,-0.109904 0,-0.09722 0.0507,-0.321257 0.1395,-0.63406 0.13526,-0.469205 0.16063,-0.566428 0.16063,-0.634061 0,-0.04227 -0.0211,-0.06341 -0.0676,-0.06341 -0.0761,0 -0.33816,0.135266 -0.85387,0.439615 0.0169,-0.07609 0.0169,-0.07609 0.055,-0.240943 0.0169,-0.06341 0.0296,-0.135266 0.0296,-0.152174 0,-0.02959 -0.0211,-0.0465 -0.055,-0.0465 -0.0719,0 -0.23248,0.08877 -0.84118,0.473432 0.0676,-0.287441 0.0888,-0.384663 0.0888,-0.414253 0,-0.03804 -0.0254,-0.05918 -0.0634,-0.05918 -0.0423,0 -0.0888,0.02536 -0.30012,0.143721 -0.27899,0.160628 -0.27899,0.160628 -0.35508,0.211353 l -0.0296,0.118358 c 0.22404,-0.114131 0.26208,-0.126812 0.31281,-0.126812 0.0338,0 0.0592,0.03382 0.0592,0.08031 0,0.06341 -0.0127,0.118358 -0.18177,0.790462 -0.038,0.135267 -0.0719,0.27476 -0.10567,0.414253 z"
       style="font-size:4.22707px;font-family:Z003;-inkscape-font-specification:Z003;fill:#5f554c;stroke-width:0.264191"
       id="path4679" />
    <path
       d="m 129.65391,32.126942 c -0.33816,0.287441 -0.51992,0.393118 -0.68055,0.393118 -0.10991,0 -0.19445,-0.07186 -0.22404,-0.181764 -0.0169,-0.06763 -0.0211,-0.114131 -0.0211,-0.236716 0.19444,-0.122585 0.3128,-0.207127 0.5622,-0.393118 0.23249,-0.173309 0.31703,-0.312803 0.31703,-0.503021 0,-0.147947 -0.0888,-0.236716 -0.24095,-0.236716 -0.093,0 -0.1564,0.02114 -0.25785,0.07609 -0.16063,0.093 -0.30435,0.207127 -0.38889,0.308577 -0.16063,0.194445 -0.30435,0.659422 -0.30435,1.001815 0,0.249397 0.13104,0.405799 0.34662,0.405799 0.2494,0 0.57066,-0.185991 0.88769,-0.511476 z m -0.91304,-0.177537 c 0.0719,-0.456523 0.26208,-0.803143 0.44807,-0.803143 0.0676,0 0.11413,0.06763 0.11413,0.17331 0,0.211353 -0.12259,0.34662 -0.5622,0.629833 z"
       style="font-size:4.22707px;font-family:Z003;-inkscape-font-specification:Z003;fill:#5f554c;stroke-width:0.264191"
       id="path4676" />
    <path
       d="m 130.17807,32.625737 0.2494,-0.993362 0.10568,-0.06763 c 0.39311,-0.24517 0.43961,-0.270532 0.49879,-0.270532 0.0254,0 0.0423,0.02114 0.0423,0.05495 0,0.06763 -0.0296,0.190219 -0.1564,0.705921 -0.093,0.371982 -0.1099,0.44807 -0.1099,0.528384 0,0.05918 0.0169,0.109904 0.0634,0.190218 0.19022,-0.08454 0.48611,-0.270532 0.78201,-0.49034 l 0.0296,-0.118358 c -0.41003,0.236716 -0.43962,0.249397 -0.48189,0.249397 -0.0423,0 -0.0676,-0.04227 -0.0676,-0.114131 0,-0.114131 0.0169,-0.185991 0.2029,-0.858095 0.10568,-0.376209 0.10568,-0.376209 0.10568,-0.401572 0,-0.0465 -0.0296,-0.07186 -0.0803,-0.07186 -0.093,0 -0.10567,0.0085 -0.5622,0.287441 -0.16908,0.105677 -0.27899,0.17331 -0.32971,0.207126 0.0423,-0.147947 0.10145,-0.405798 0.10145,-0.439615 0,-0.03382 -0.0211,-0.05495 -0.0549,-0.05495 -0.0465,0 -0.33394,0.147948 -0.66365,0.342393 l -0.0254,0.109904 c 0.27053,-0.122585 0.28744,-0.126812 0.32548,-0.126812 0.0296,0 0.0507,0.02536 0.0507,0.05918 0,0.09299 -0.0761,0.431161 -0.18599,0.824278 l -0.0972,0.342393 c -0.008,0.02959 -0.0296,0.109904 -0.0592,0.228262 z"
       style="font-size:4.22707px;font-family:Z003;-inkscape-font-specification:Z003;fill:#5f554c;stroke-width:0.264191"
       id="path4673" />
    <path
       d="m 132.96371,32.17344 c -0.32126,0.194445 -0.45653,0.262078 -0.5157,0.262078 -0.055,0 -0.12259,-0.105676 -0.12259,-0.198672 0,-0.05918 0.004,-0.07186 0.0972,-0.473432 0.0211,-0.07609 0.038,-0.156401 0.0549,-0.236716 0.004,-0.01268 0.0211,-0.08031 0.0296,-0.118358 0.14372,-0.0042 0.27476,-0.01268 0.41848,-0.02113 l 0.16063,-0.122585 h -0.54106 c 0.0211,-0.09722 0.0296,-0.126812 0.0423,-0.190218 0.0127,-0.04227 0.0423,-0.156402 0.10145,-0.384663 l 0.0254,-0.109904 -0.0719,0.03804 c -0.0254,0.0085 -0.0592,0.02536 -0.10568,0.0465 -0.0296,0.01691 -0.0634,0.02959 -0.0972,0.0465 -0.0169,0.0085 -0.0338,0.01691 -0.0592,0.02536 l -0.038,0.17331 -0.0465,0.2029 -0.0338,0.152174 c -0.038,0.0042 -0.0634,0.0042 -0.0761,0.0042 h -0.10145 c -0.008,0 -0.0296,0 -0.0634,0.0042 -0.0211,0.01268 -0.038,0.02536 -0.0423,0.02536 -0.0127,0.0085 -0.038,0.02959 -0.0803,0.06341 -0.008,0.0042 -0.0296,0.02536 -0.0634,0.0465 h 0.10145 0.19444 0.093 l -0.0423,0.185992 c -0.18176,0.748191 -0.18176,0.748191 -0.18176,0.883457 0,0.135266 0.0888,0.283214 0.16908,0.283214 0.093,0 0.38043,-0.17331 0.78623,-0.481886 z"
       style="font-size:4.22707px;font-family:Z003;-inkscape-font-specification:Z003;fill:#5f554c;stroke-width:0.264191"
       id="path4670" />
    <path
       d="m 134.40936,32.126942 c -0.33817,0.287441 -0.51993,0.393118 -0.68056,0.393118 -0.1099,0 -0.19444,-0.07186 -0.22403,-0.181764 -0.0169,-0.06763 -0.0211,-0.114131 -0.0211,-0.236716 0.19445,-0.122585 0.31281,-0.207127 0.5622,-0.393118 0.23249,-0.173309 0.31703,-0.312803 0.31703,-0.503021 0,-0.147947 -0.0888,-0.236716 -0.24094,-0.236716 -0.093,0 -0.1564,0.02114 -0.25785,0.07609 -0.16063,0.093 -0.30435,0.207127 -0.38889,0.308577 -0.16063,0.194445 -0.30435,0.659422 -0.30435,1.001815 0,0.249397 0.13104,0.405799 0.34662,0.405799 0.2494,0 0.57065,-0.185991 0.88768,-0.511476 z m -0.91305,-0.177537 c 0.0719,-0.456523 0.26208,-0.803143 0.44807,-0.803143 0.0676,0 0.11413,0.06763 0.11413,0.17331 0,0.211353 -0.12258,0.34662 -0.5622,0.629833 z"
       style="font-size:4.22707px;font-family:Z003;-inkscape-font-specification:Z003;fill:#5f554c;stroke-width:0.264191"
       id="path4667" />
    <path
       d="m 135.26323,33.606417 -0.12682,0.135266 c 0.0761,0.0042 0.12682,0.0042 0.14372,0.0042 l 0.30435,0.0042 0.27054,0.0042 c 0.0338,0 0.093,0 0.19867,-0.0042 l 0.13104,-0.105677 -0.47343,-0.02536 c 0.055,-0.257851 0.0803,-0.380436 0.0972,-0.448069 0.0211,-0.08877 0.038,-0.177537 0.0592,-0.270533 l 0.0465,-0.181764 c 0.0845,0.01691 0.13103,0.02113 0.20289,0.02113 0.23249,0 0.27899,-0.02113 0.6087,-0.295894 0.14372,-0.114131 0.19445,-0.17331 0.25785,-0.295895 0.13527,-0.27476 0.22404,-0.604471 0.22404,-0.845414 0,-0.2029 -0.0888,-0.333939 -0.22826,-0.333939 -0.10145,0 -0.24517,0.06341 -0.41848,0.190218 -0.18599,0.135267 -0.30013,0.219808 -0.34662,0.249397 0.0592,-0.249397 0.0888,-0.376209 0.0888,-0.384663 0,-0.02536 -0.0296,-0.05495 -0.0592,-0.05495 -0.0423,0 -0.38467,0.181764 -0.69747,0.367755 l -0.0254,0.109904 c 0.0296,-0.01268 0.0888,-0.03804 0.17331,-0.07186 0.0803,-0.03804 0.0972,-0.04227 0.13104,-0.04227 0.0507,0 0.0803,0.04227 0.0803,0.118358 0,0.152175 -0.2494,1.238532 -0.49034,2.147352 z m 0.75241,-1.314619 0.0634,-0.287441 0.0634,-0.274759 c 0.004,-0.02114 0.0169,-0.07609 0.0338,-0.152175 0.3424,-0.253624 0.47766,-0.325484 0.58757,-0.325484 0.0845,0 0.13949,0.08877 0.13949,0.232489 0,0.190218 -0.0592,0.431161 -0.16486,0.659423 -0.11413,0.253624 -0.25785,0.376209 -0.43116,0.376209 -0.10567,0 -0.2198,-0.03382 -0.32125,-0.093 z"
       style="font-size:4.22707px;font-family:Z003;-inkscape-font-specification:Z003;fill:#5f554c;stroke-width:0.264191"
       id="path4664" />
    <path
       d="m 138.63643,32.126942 c -0.33817,0.287441 -0.51993,0.393118 -0.68056,0.393118 -0.1099,0 -0.19444,-0.07186 -0.22403,-0.181764 -0.0169,-0.06763 -0.0211,-0.114131 -0.0211,-0.236716 0.19445,-0.122585 0.31281,-0.207127 0.5622,-0.393118 0.23249,-0.173309 0.31703,-0.312803 0.31703,-0.503021 0,-0.147947 -0.0888,-0.236716 -0.24094,-0.236716 -0.093,0 -0.1564,0.02114 -0.25785,0.07609 -0.16063,0.093 -0.30435,0.207127 -0.38889,0.308577 -0.16063,0.194445 -0.30435,0.659422 -0.30435,1.001815 0,0.249397 0.13104,0.405799 0.34662,0.405799 0.2494,0 0.57065,-0.185991 0.88768,-0.511476 z m -0.91305,-0.177537 c 0.0719,-0.456523 0.26208,-0.803143 0.44807,-0.803143 0.0676,0 0.11413,0.06763 0.11413,0.17331 0,0.211353 -0.12258,0.34662 -0.5622,0.629833 z"
       style="font-size:4.22707px;font-family:Z003;-inkscape-font-specification:Z003;fill:#5f554c;stroke-width:0.264191"
       id="path4661" />
    <path
       d="m 139.16059,32.625737 0.24939,-0.993362 0.10568,-0.06763 c 0.39312,-0.24517 0.43962,-0.270532 0.4988,-0.270532 0.0254,0 0.0423,0.02114 0.0423,0.05495 0,0.06763 -0.0296,0.190219 -0.15641,0.705921 -0.093,0.371982 -0.1099,0.44807 -0.1099,0.528384 0,0.05918 0.0169,0.109904 0.0634,0.190218 0.19022,-0.08454 0.48611,-0.270532 0.782,-0.49034 l 0.0296,-0.118358 c -0.41002,0.236716 -0.43961,0.249397 -0.48188,0.249397 -0.0423,0 -0.0676,-0.04227 -0.0676,-0.114131 0,-0.114131 0.0169,-0.185991 0.20289,-0.858095 0.10568,-0.376209 0.10568,-0.376209 0.10568,-0.401572 0,-0.0465 -0.0296,-0.07186 -0.0803,-0.07186 -0.093,0 -0.10568,0.0085 -0.5622,0.287441 -0.16909,0.105677 -0.27899,0.17331 -0.32971,0.207126 0.0423,-0.147947 0.10145,-0.405798 0.10145,-0.439615 0,-0.03382 -0.0211,-0.05495 -0.055,-0.05495 -0.0465,0 -0.33394,0.147948 -0.66365,0.342393 l -0.0254,0.109904 c 0.27053,-0.122585 0.28744,-0.126812 0.32549,-0.126812 0.0296,0 0.0507,0.02536 0.0507,0.05918 0,0.09299 -0.0761,0.431161 -0.18599,0.824278 l -0.0972,0.342393 c -0.008,0.02959 -0.0296,0.109904 -0.0592,0.228262 z"
       style="font-size:4.22707px;font-family:Z003;-inkscape-font-specification:Z003;fill:#5f554c;stroke-width:0.264191"
       id="path4658" />
    <path
       d="m 140.59356,32.355204 c -0.004,0.03804 -0.008,0.07186 -0.008,0.09722 0,0.185991 0.12681,0.308576 0.3128,0.308576 0.13527,0 0.3128,-0.05072 0.44807,-0.131039 0.25362,-0.143721 0.40157,-0.359301 0.40157,-0.570655 0,-0.156401 -0.0254,-0.190218 -0.2663,-0.338165 -0.14373,-0.093 -0.2029,-0.17331 -0.2029,-0.283214 0,-0.14372 0.12258,-0.270533 0.2663,-0.270533 0.0972,0 0.17331,0.0465 0.26208,0.164856 0.14372,-0.139493 0.14372,-0.139493 0.19867,-0.219807 -0.0845,-0.10145 -0.16485,-0.143721 -0.28321,-0.143721 -0.30858,0 -0.70592,0.363528 -0.70592,0.646742 0,0.131039 0.0676,0.232489 0.22826,0.34662 0.21135,0.147947 0.24094,0.185991 0.24094,0.291667 0,0.152175 -0.19444,0.329712 -0.3593,0.329712 -0.093,0 -0.16485,-0.05072 -0.20713,-0.143721 -0.0296,-0.06341 -0.038,-0.126812 -0.0423,-0.274759 -0.0465,0.03804 -0.0803,0.05918 -0.0972,0.07186 -0.0338,0.02114 -0.0719,0.04227 -0.1099,0.06763 -0.004,0 -0.0423,0.02959 -0.0761,0.05072 z"
       style="font-size:4.22707px;font-family:Z003;-inkscape-font-specification:Z003;fill:#5f554c;stroke-width:0.264191"
       id="path4655" />
    <path
       d="m 143.79346,32.152305 c -0.30858,0.211353 -0.38044,0.253624 -0.42271,0.253624 -0.0296,0 -0.0507,-0.03382 -0.0507,-0.08454 0,-0.114131 0.0972,-0.557974 0.25363,-1.137082 0.0465,-0.06763 0.055,-0.07609 0.12258,-0.152175 -0.2029,-0.0465 -0.34662,-0.06341 -0.53261,-0.06341 -0.17331,0 -0.25785,0.01691 -0.36353,0.08454 -0.15217,0.08877 -0.32971,0.219807 -0.38466,0.278986 -0.16063,0.177537 -0.33394,0.748192 -0.33394,1.090584 0,0.2029 0.0676,0.338166 0.17331,0.338166 0.093,0 0.23249,-0.08454 0.76088,-0.464978 -0.0465,0.215581 -0.0634,0.321257 -0.0634,0.376209 0,0.05918 0.0254,0.08877 0.0676,0.08877 0.0549,0 0.0888,-0.01691 0.38889,-0.215581 0.14372,-0.09722 0.22404,-0.152174 0.38044,-0.266305 z m -0.74397,-0.02959 c -0.14795,0.109904 -0.22403,0.164856 -0.22826,0.169083 -0.13949,0.08877 -0.2494,0.14372 -0.30435,0.14372 -0.0719,0 -0.1099,-0.07609 -0.1099,-0.211353 0,-0.215581 0.0634,-0.494567 0.17331,-0.739737 0.10145,-0.232489 0.19444,-0.321258 0.33816,-0.321258 0.0761,0 0.21981,0.02114 0.3593,0.05495 -0.0845,0.304349 -0.11413,0.41848 -0.11835,0.439616 -0.0254,0.105676 -0.0465,0.211353 -0.0719,0.321257 -0.004,0.02113 -0.0169,0.07186 -0.038,0.14372 z"
       style="font-size:4.22707px;font-family:Z003;-inkscape-font-specification:Z003;fill:#5f554c;stroke-width:0.264191"
       id="path4652" />
    <path
       d="m 144.18235,32.625737 0.24939,-0.993362 0.10568,-0.06763 c 0.39312,-0.24517 0.43962,-0.270532 0.49879,-0.270532 0.0254,0 0.0423,0.02114 0.0423,0.05495 0,0.06763 -0.0296,0.190219 -0.15641,0.705921 -0.093,0.371982 -0.1099,0.44807 -0.1099,0.528384 0,0.05918 0.0169,0.109904 0.0634,0.190218 0.19021,-0.08454 0.48611,-0.270532 0.782,-0.49034 l 0.0296,-0.118358 c -0.41002,0.236716 -0.43961,0.249397 -0.48188,0.249397 -0.0423,0 -0.0676,-0.04227 -0.0676,-0.114131 0,-0.114131 0.0169,-0.185991 0.2029,-0.858095 0.10568,-0.376209 0.10568,-0.376209 0.10568,-0.401572 0,-0.0465 -0.0296,-0.07186 -0.0803,-0.07186 -0.093,0 -0.10568,0.0085 -0.5622,0.287441 -0.16909,0.105677 -0.27899,0.17331 -0.32972,0.207126 0.0423,-0.147947 0.10145,-0.405798 0.10145,-0.439615 0,-0.03382 -0.0211,-0.05495 -0.0549,-0.05495 -0.0465,0 -0.33394,0.147948 -0.66365,0.342393 l -0.0254,0.109904 c 0.27053,-0.122585 0.28744,-0.126812 0.32548,-0.126812 0.0296,0 0.0507,0.02536 0.0507,0.05918 0,0.09299 -0.0761,0.431161 -0.18599,0.824278 l -0.0972,0.342393 c -0.008,0.02959 -0.0296,0.109904 -0.0592,0.228262 z"
       style="font-size:4.22707px;font-family:Z003;-inkscape-font-specification:Z003;fill:#5f554c;stroke-width:0.264191"
       id="path4649" />
    <path
       d="m 147.53441,32.152305 -0.11836,0.07609 c -0.10568,0.07186 -0.17754,0.122585 -0.19867,0.135266 -0.0888,0.05495 -0.16908,0.093 -0.19022,0.093 -0.0338,0 -0.0592,-0.0465 -0.0592,-0.109904 0,-0.139493 0.35085,-1.669693 0.44384,-1.931771 0.093,-0.253624 0.186,-0.350847 0.33817,-0.350847 0.0592,0 0.0972,0.0085 0.19445,0.03382 l 0.14794,-0.236716 c -0.0634,-0.01268 -0.093,-0.01691 -0.13526,-0.01691 -0.10145,0 -0.16063,0.01691 -0.25363,0.07186 -0.10567,0.05918 -0.2494,0.169083 -0.36775,0.278986 -0.20713,0.198673 -0.21981,0.228262 -0.32971,0.66365 -0.004,0.01691 -0.0169,0.07609 -0.0338,0.135267 -0.0761,-0.01691 -0.13527,-0.02536 -0.17331,-0.02536 -0.13104,0 -0.49457,0.228262 -0.66365,0.414253 -0.14372,0.164856 -0.33394,0.760873 -0.33394,1.05254 0,0.160629 0.0845,0.325485 0.16063,0.325485 0.0803,0 0.27476,-0.118358 0.71015,-0.435388 -0.0211,0.11413 -0.0338,0.224034 -0.0338,0.304349 0,0.08454 0.0296,0.131039 0.093,0.131039 0.0676,0 0.43538,-0.224035 0.78623,-0.477659 z m -0.82851,0.01691 c -0.3593,0.253624 -0.45229,0.308576 -0.51147,0.308576 -0.0592,0 -0.0888,-0.05918 -0.0888,-0.185991 0,-0.139493 0.0254,-0.295895 0.0761,-0.486113 0.11835,-0.426934 0.28744,-0.638288 0.50302,-0.638288 0.0803,0 0.13526,0.02959 0.21981,0.114131 z"
       style="font-size:4.22707px;font-family:Z003;-inkscape-font-specification:Z003;fill:#5f554c;stroke-width:0.264191"
       id="path4646" />
    <path
       d="m 148.81099,30.968725 c -0.16909,0 -0.43962,0.122585 -0.68902,0.308576 -0.27053,0.2029 -0.46075,0.642515 -0.46075,1.065222 0,0.253624 0.14372,0.41848 0.36776,0.41848 0.11836,0 0.24094,-0.04227 0.43116,-0.143721 0.21135,-0.118358 0.35085,-0.224034 0.42693,-0.321257 0.16909,-0.232489 0.30435,-0.646742 0.30435,-0.938409 0,-0.228262 -0.1564,-0.388891 -0.38043,-0.388891 z m -0.21981,0.198672 c 0.16908,0 0.27476,0.160629 0.27476,0.41848 0,0.181764 -0.0592,0.397345 -0.16063,0.604471 -0.12259,0.240943 -0.27476,0.371982 -0.43539,0.371982 -0.17331,0 -0.28321,-0.156401 -0.28321,-0.397344 0,-0.49034 0.30857,-0.997589 0.60447,-0.997589 z"
       style="font-size:4.22707px;font-family:Z003;-inkscape-font-specification:Z003;fill:#5f554c;stroke-width:0.264191"
       id="path4643" />
  </g>
</svg>
